<svg id="Layer_1" data-name="Layer 1" xmlns="http://www.w3.org/2000/svg" viewBox="0 0 1200 887">
    <defs>
        <style>.cls-1{fill:#ddc2e5;}.cls-2{fill:#fe9ec3;}.cls-3{fill:#fceeed;}.cls-4{fill:#002c45;}.cls-5{fill:#fe6a52;}.cls-6{fill:#288155;}.cls-7{fill:#fe9fc3;}.cls-8{fill:#298155;}.cls-9{fill:#fec941;}.cls-10{fill:#fbc742;}.cls-11{fill:#fec648;}</style>
    </defs>
    <path class="cls-1" d="M681.12,746.57H247.21c-4-3.75-7.87-7.6-12-11.24q-25.68-22.87-51.44-45.64c-10.19-9.06-20.27-18.22-30.45-27.28C136.24,647.18,119,632,101.92,616.77,91,607,80.32,597.05,69.31,587.43,48,568.79,28.11,548.67,10.82,526.25c-20-25.92-34.52-54.87-44.76-85.94-13.31-40.42-18.37-82.18-19.69-124.49-.58-18.77.59-37.53,1.76-56.28q1.56-24.87,5.41-49.44c5.24-33,13-65.49,24.72-96.91C-9.31,80,6.5,48.6,27.29,19.82A322.56,322.56,0,0,1,95.57-49.62a301.44,301.44,0,0,1,69.05-38.71c45.21-17.6,91.68-21.14,139.33-12.93,25.1,4.32,49.8,10.34,74.54,16.25,75.83,18.1,152.59,32.24,227.57,53.9,2.58,15.52,7,30.43,14.38,44.4,12.08,23,28.58,42.42,48,59.47C698.28,99,731.61,119.13,769.77,131c30.88,9.57,62.74,12.92,94.71,15.89,9.75.9,19.58,1.14,29.23,3a480.19,480.19,0,0,1,33.21,58.49c2,4.15,3.16,8.74,6.15,12.41v238.9c-6.88,1.92-13.79,3.72-20.62,5.76A1148.53,1148.53,0,0,1,755,500.59c-32.13,4.84-64.37,9.06-96.42,14.35-31.78,5.25-63.43,11.25-94.56,19.72C523.92,545.59,485.22,560,449.2,581.11c-24.93,14.59-48.12,31.42-68.39,52.19-8.73,8.94-17.39,18-24.62,28.1-6.94,9.74-15.15,18.72-16.82,31.65-1.56,12.06,4.49,18.22,16.07,14.61a911.09,911.09,0,0,1,105-25.79,859.72,859.72,0,0,1,124-13.93c17.7-.67,35.47-1.32,53.3-.69,25.57.9,51.09,1.81,76.57,4.27,17.66,1.7,35.26,3.85,52.85,6.12a5.88,5.88,0,0,1-.92,1.16c-20.3,14.93-40.67,29.77-60.09,45.85C697.58,731.71,688.68,738.39,681.12,746.57Z" transform="translate(266.75 140.22)" />
    <path class="cls-2" d="M164.62-88.33A301.44,301.44,0,0,0,95.57-49.62,322.56,322.56,0,0,0,27.29,19.82C6.5,48.6-9.31,80-21.74,113.19c-11.77,31.42-19.48,63.87-24.72,96.91q-3.88,24.56-5.41,49.44c-1.17,18.75-2.34,37.51-1.76,56.28,1.32,42.31,6.38,84.07,19.69,124.49,10.24,31.07,24.78,60,44.76,85.94C28.11,548.67,48,568.79,69.31,587.43c11,9.62,21.69,19.61,32.61,29.34C119,632,136.24,647.18,153.37,662.41c10.18,9.06,20.26,18.22,30.45,27.28q25.69,22.84,51.44,45.64c4.08,3.64,8,7.49,12,11.24H-45.72a243.7,243.7,0,0,0-18.93-20.16,11.54,11.54,0,0,1,.24-2c7.39-23.74,10-48.19,10.58-72.9C-53,618.15-56.35,585-60.69,552c-5-37.81-7.76-75.84-12.15-113.7-2.82-24.29-9.84-47.2-25.23-66.87-10.91-13.94-24.19-25.21-39.08-34.62-31.06-19.63-64.39-32.43-101.63-33.37-9.34-.24-18.6.8-27.9,1.33V-7.14c2.81-8.49,3.18-17.46,4.94-26.16,7.16-35.31,19.14-68.63,39.69-98.54,1.85-2.69,4.37-5,5.36-8.25H134.24A455.37,455.37,0,0,1,164.62-88.33Z" transform="translate(266.75 140.22)" />
    <path class="cls-3" d="M767.12,677.64c-17.59-2.27-35.19-4.42-52.85-6.12-25.48-2.46-51-3.37-76.57-4.27-17.83-.63-35.6,0-53.3.69a859.72,859.72,0,0,0-124,13.93,911.09,911.09,0,0,0-105,25.79c-11.58,3.61-17.63-2.55-16.07-14.61,1.67-12.93,9.88-21.91,16.82-31.65,7.23-10.15,15.89-19.16,24.62-28.1,20.27-20.77,43.46-37.6,68.39-52.19,36-21.09,74.72-35.52,114.85-46.45,31.13-8.47,62.78-14.47,94.56-19.72,32-5.29,64.29-9.51,96.42-14.35a1148.53,1148.53,0,0,0,157.42-35.15c6.83-2,13.74-3.84,20.62-5.76V665.6c-8,2.68-16,5.73-24.11,7.95-18.14,5-36.66,7.26-55.48,8.35-17,1-33.82.05-50.69-1.22C790.89,679.78,779,678.66,767.12,677.64Z" transform="translate(266.75 140.22)" />
    <path class="cls-4" d="M-266.68,304.74c9.3-.53,18.56-1.57,27.9-1.33,37.24.94,70.57,13.74,101.63,33.37,14.89,9.41,28.17,20.68,39.08,34.62,15.39,19.67,22.41,42.58,25.23,66.87,4.39,37.86,7.18,75.89,12.15,113.7,4.34,33,7.65,66.18,6.86,99.58-.59,24.71-3.19,49.16-10.58,72.9a11.54,11.54,0,0,0-.24,2c-2.39,6.71-5.36,13.22-7.07,20.16q-95.4,0-190.81.12c-3.87,0-4.22-1.13-4.22-4.46Q-266.63,523.48-266.68,304.74Z" transform="translate(266.75 140.22)" />
    <path class="cls-5" d="M893.71,149.88c-9.65-1.88-19.48-2.12-29.23-3-32-3-63.83-6.32-94.71-15.89-38.16-11.84-71.49-32-101.34-58.21-19.41-17.05-35.91-36.49-48-59.47-7.34-14-11.8-28.88-14.38-44.4-2.7-26.07,3.25-50.47,14.13-74,5.76-12.41,13.27-23.75,20.94-35q144,0,287.94-.09c3.42,0,4.1.67,4.09,4.09Q933,8.85,933.07,153.8a42.6,42.6,0,0,1-7.39-.53C915.05,151.92,904.45,150.16,893.71,149.88Z" transform="translate(266.75 140.22)" />
    <path class="cls-6" d="M641.13-140.09c-7.67,11.27-15.18,22.61-20.94,35-10.88,23.49-16.83,47.89-14.13,74-75-21.66-151.74-35.8-227.57-53.9-24.74-5.91-49.44-11.93-74.54-16.25-47.65-8.21-94.12-4.67-139.33,12.93a455.37,455.37,0,0,0-30.38-51.76Z" transform="translate(266.75 140.22)" />
    <path class="cls-7" d="M767.12,677.64c11.89,1,23.77,2.14,35.67,3,16.87,1.27,33.7,2.2,50.69,1.22,18.82-1.09,37.34-3.39,55.48-8.35,8.16-2.22,16.08-5.27,24.11-7.95v70a34,34,0,0,0-4,11h-248c7.56-8.18,16.46-14.86,25-21.92,19.42-16.08,39.79-30.92,60.09-45.85A5.88,5.88,0,0,0,767.12,677.64Z" transform="translate(266.75 140.22)" />
    <path class="cls-8" d="M-216.69-140.09c-1,3.27-3.51,5.56-5.36,8.25-20.55,29.91-32.53,63.23-39.69,98.54-1.76,8.7-2.13,17.67-4.94,26.16q0-64.29-.07-128.6c0-3.28.27-4.56,4.2-4.48C-247.27-139.9-232-140.09-216.69-140.09Z" transform="translate(266.75 140.22)" />
    <path class="cls-9" d="M893.71,149.88c10.74.28,21.34,2,32,3.39a42.6,42.6,0,0,0,7.39.53v67c-3-3.67-4.14-8.26-6.15-12.41A480.19,480.19,0,0,0,893.71,149.88Z" transform="translate(266.75 140.22)" />
    <path class="cls-10" d="M-71.72,746.57c1.71-6.94,4.68-13.45,7.07-20.16a243.7,243.7,0,0,1,18.93,20.16Z" transform="translate(266.75 140.22)" />
    <path class="cls-11" d="M929.07,746.57a34,34,0,0,1,4-11,47.77,47.77,0,0,0,.06,7C933.64,746,932.49,747.33,929.07,746.57Z" transform="translate(266.75 140.22)" />
</svg>