<svg width="94" height="124" viewBox="0 0 94 124" fill="none" xmlns="http://www.w3.org/2000/svg">
    <g clip-path="url(#clip0_38_251)">
        <path d="M93.2331 80.0475C78.3293 105.492 51.3796 124 51.3796 124C51.3796 124 15.7335 99.5376 3.77972 68.2C1.93595 63.3505 0.645318 58.3475 0.153647 53.2525C0.153647 53.1604 0.122918 53.0376 0.122918 52.9455C0.0307294 51.7178 0 50.4901 0 49.2317C0 22.0376 22.0637 0 49.29 0C64.163 0 77.5303 6.59901 86.5648 17.004C91.6044 24.4624 91.8503 29.4347 90.6825 32.7802C85.9195 46.8069 51.0723 50.3059 51.0723 50.3059C77.1616 37.2614 62.4115 29.5267 60.7828 28.7287C60.6906 28.698 60.6292 28.6673 60.6292 28.6673C57.3104 27.2861 53.6536 26.6109 49.7817 26.8564C37.8894 27.5931 28.2403 37.2 27.4106 49.0782C26.458 63.0743 37.5514 74.7376 51.3489 74.7376C59.4922 74.7376 66.6521 70.6861 70.985 64.5168L88.2242 64.5782L91.4508 74.7069L93.2331 80.0475Z" fill="#AADEE9" />
    </g>
    <defs>
        <clipPath id="clip0_38_251">
            <rect width="93.2331" height="124" fill="white" />
        </clipPath>
    </defs>
</svg>