<svg width="207" height="193" viewBox="0 0 207 193" fill="none" xmlns="http://www.w3.org/2000/svg">
<g clip-path="url(#clip0_271_1459)">
<path d="M80.7027 132.366H22.2256V190.918H80.7027V132.366Z" fill="#F0B66F"/>
<path d="M55.6279 132.366H47.2891V145.358H55.6279V132.366Z" fill="white"/>
<path d="M55.6279 178.417H47.2891V190.907H55.6279V178.417Z" fill="white"/>
<path d="M98.2916 73.7432H39.8145V132.296H98.2916V73.7432Z" fill="#F0B66F"/>
<path d="M73.2158 73.7432H64.877V86.7353H73.2158V73.7432Z" fill="white"/>
<path d="M73.2158 119.806H64.877V132.296H73.2158V119.806Z" fill="white"/>
<path d="M138.642 132.296H80.165V190.848H138.642V132.296Z" fill="#F0B66F"/>
<path d="M113.579 132.296H105.24V145.288H113.579V132.296Z" fill="white" stroke="#020001" stroke-width="0.75" stroke-miterlimit="10"/>
<path d="M113.579 178.347H105.24V190.837H113.579V178.347Z" fill="white"/>
<path d="M21.3845 133.091H134.999C136.517 133.091 138.105 133.22 139.67 133.091H139.88C140.058 133.068 140.221 132.982 140.34 132.847C140.458 132.713 140.524 132.539 140.524 132.36C140.524 132.181 140.458 132.007 140.34 131.873C140.221 131.738 140.058 131.652 139.88 131.629H26.1963C24.6897 131.629 23.1013 131.512 21.5947 131.629H21.3845C21.2068 131.652 21.0434 131.738 20.925 131.873C20.8065 132.007 20.7412 132.181 20.7412 132.36C20.7412 132.539 20.8065 132.713 20.925 132.847C21.0434 132.982 21.2068 133.068 21.3845 133.091Z" fill="#D26637"/>
<path d="M80.9013 190.462V132.705C80.8788 132.527 80.7922 132.363 80.6578 132.245C80.5234 132.126 80.3505 132.061 80.1713 132.061C79.9922 132.061 79.8193 132.126 79.6849 132.245C79.5505 132.363 79.4639 132.527 79.4414 132.705V190.462C79.4639 190.64 79.5505 190.804 79.6849 190.922C79.8193 191.041 79.9922 191.106 80.1713 191.106C80.3505 191.106 80.5234 191.041 80.6578 190.922C80.7922 190.804 80.8788 190.64 80.9013 190.462Z" fill="#D26637"/>
<path d="M90.8746 152.795L81.5547 165.355L90.4775 172.009L100.545 158.596L90.8746 152.795Z" fill="#995E69"/>
<path d="M82.3374 186.942L70.5065 178.698C70.5065 178.698 68.9883 177.762 69.3386 177.33L81.3564 161.379L93.9815 171.553L89.8237 178.37L92.4282 184.814C92.6777 185.431 93.0795 185.974 93.5961 186.393L100.604 190.556H91.3887H89.1463C88.2858 190.528 87.443 190.304 86.6821 189.901L82.3374 186.942Z" fill="white"/>
<path d="M75.8091 168.735C76.9553 169.37 77.9139 170.297 78.5884 171.421C79.2628 172.546 79.6291 173.829 79.6504 175.141C79.6718 176.452 79.3473 177.746 78.7098 178.892C78.0723 180.038 77.1442 180.996 76.0193 181.668C75.7813 181.807 75.5356 181.932 75.2835 182.043L69.0469 177.681L75.8091 168.735Z" fill="#3E1D5D"/>
<path d="M93.9234 184.604L89.4854 187.258" stroke="#210E2C" stroke-miterlimit="10"/>
<path d="M92.3238 181.364L87.874 184.019" stroke="#210E2C" stroke-miterlimit="10"/>
<path d="M91.0967 179.306C91.0967 179.306 100.44 181.446 100.674 178.546C101.036 173.868 91.0967 179.306 91.0967 179.306Z" stroke="#210E2C" stroke-miterlimit="10"/>
<path d="M97.5784 173.424L90.7578 179.294" stroke="#210E2C" stroke-miterlimit="10"/>
<path d="M85.4092 154.62L100.592 165.531C100.592 165.531 134.123 132.284 131.81 100.043L129.79 99.5405L114.852 95.2371C114.852 95.2371 109.783 128.156 85.4092 154.62Z" fill="#2736C9"/>
<path d="M90.5361 148.714L104.364 158.07L106.338 159.403C106.805 159.718 107.237 158.958 106.77 158.643L92.9536 149.287L90.9799 147.954C90.5127 147.638 90.0806 148.399 90.5361 148.714Z" fill="#3E1D5D"/>
<path d="M155.74 158.338V173.997H166.87L166.952 157.228L155.74 158.338Z" fill="#995E69"/>
<path d="M187.122 190.813L152.681 190.567L153.58 170.173L169.744 171.377L170.188 179.353L187.122 190.813Z" fill="white"/>
<path d="M153.171 179.364C154.474 179.238 155.787 179.457 156.978 180C158.17 180.543 159.197 181.391 159.957 182.458C160.717 183.525 161.183 184.773 161.308 186.078C161.433 187.382 161.213 188.697 160.669 189.889C160.555 190.142 160.426 190.388 160.284 190.626H152.681L153.171 179.364Z" fill="#3E1D5D"/>
<path d="M177.079 182.136L174.93 186.849" stroke="#210E2C" stroke-miterlimit="10"/>
<path d="M173.925 180.382L171.776 185.095" stroke="#210E2C" stroke-miterlimit="10"/>
<path d="M171.683 179.294C171.683 179.294 180.582 175.786 179.146 173.213C176.786 169.144 171.683 179.294 171.683 179.294Z" stroke="#210E2C" stroke-miterlimit="10"/>
<path d="M173.691 170.746L171.414 179.446" stroke="#210E2C" stroke-miterlimit="10"/>
<path d="M112.691 88.2556C112.691 88.2556 110.426 101.447 127.722 113.363C139.401 121.42 148.85 127.7 150.462 146.165L151.536 160.502H171.764C171.764 160.502 172.301 133.968 161.019 115.503C154.07 104.219 145.508 94.0147 135.606 85.2151L112.691 88.2556Z" fill="#2736C9"/>
<path d="M150.894 152.328H171.402C171.506 152.311 171.6 152.257 171.668 152.177C171.737 152.097 171.774 151.995 171.774 151.889C171.774 151.784 171.737 151.682 171.668 151.602C171.6 151.521 171.506 151.468 171.402 151.451H150.894C150.79 151.468 150.695 151.521 150.627 151.602C150.559 151.682 150.521 151.784 150.521 151.889C150.521 151.995 150.559 152.097 150.627 152.177C150.695 152.257 150.79 152.311 150.894 152.328Z" fill="#210E2C"/>
<path d="M112.528 93.4828C112.902 97.9382 115.576 102.382 118.368 105.738C124.347 113.012 133.364 116.742 140.137 123.162C141.921 124.831 143.435 126.768 144.622 128.904C144.891 129.407 145.65 128.904 145.37 128.46C142.812 123.782 138.736 120.566 134.52 117.491C130.304 114.415 125.398 111.644 121.544 107.878C118.691 105.178 116.401 101.939 114.806 98.3475C114.091 96.808 113.618 95.167 113.404 93.4828C113.404 92.9214 112.481 92.9214 112.528 93.4828Z" fill="#210E2C"/>
<path d="M137.557 25.7035L139.729 25.1188L137.58 22.4175L137.557 25.7035Z" fill="#AA1D21"/>
<path d="M132.476 14.8866H128.365C126.96 15.0089 125.659 15.6796 124.744 16.7538C123.828 17.8281 123.371 19.2198 123.472 20.6284L123.553 27.0134C123.542 27.1887 123.542 27.3645 123.553 27.5397C123.506 27.731 123.483 27.9274 123.483 28.1244V32.0185V32.229V36.1115C123.493 36.7918 123.771 37.4407 124.256 37.9163C124.742 38.3919 125.397 38.6554 126.076 38.6491H127.699C128.378 38.6368 129.024 38.3575 129.499 37.8716C129.973 37.3858 130.237 36.7324 130.234 36.053V32.6149H132.57C135.303 32.6149 137.51 29.9954 137.463 26.8731L137.381 20.4881C137.475 17.3658 135.209 14.8398 132.476 14.8866Z" fill="#995E69"/>
<path d="M118.344 13.343C119.273 13.0343 120.263 12.9541 121.229 13.1091L121.614 13.0156C124.756 3.66026 134.8 1.7775 137.124 4.94662C139.448 8.11573 136.447 11.8345 136.447 11.8345C136.447 11.8345 142.181 12.8402 138.643 17.2372C135.361 21.3184 127.501 21.5757 126.38 21.5874C126.005 23.5437 125.063 25.3458 123.67 26.7679L123.577 32.0653C123.577 32.0653 115.857 29.0365 114.128 24.8383C112.668 21.2716 112.844 14.8866 118.344 13.343Z" fill="#210E2C"/>
<path d="M132.791 23.6337C132.772 23.8678 132.842 24.1006 132.988 24.2847C133.134 24.4687 133.344 24.5903 133.576 24.6245C133.808 24.6588 134.045 24.6032 134.237 24.4691C134.43 24.335 134.564 24.1324 134.613 23.9026C134.633 23.6685 134.562 23.4357 134.417 23.2516C134.271 23.0675 134.061 22.946 133.828 22.9117C133.596 22.8775 133.36 22.933 133.167 23.0672C132.974 23.2013 132.84 23.4038 132.791 23.6337Z" fill="#210E2C"/>
<path d="M136.914 29.9019C136.451 30.0327 135.957 30.0008 135.515 29.8114C135.073 29.622 134.709 29.2866 134.484 28.8611" stroke="black" stroke-width="0.5" stroke-miterlimit="10"/>
<path d="M114.186 14.8981C113.894 15.355 113.433 15.6785 112.905 15.7988C112.376 15.9191 111.821 15.8266 111.36 15.5413C110.947 15.1932 110.687 14.6964 110.637 14.1581C110.587 13.6198 110.75 13.0833 111.091 12.6646C111.38 12.2033 111.84 11.8754 112.37 11.7527C112.899 11.63 113.456 11.7224 113.918 12.0097C114.332 12.3598 114.592 12.8587 114.642 13.3989C114.692 13.9391 114.529 14.4775 114.186 14.8981Z" fill="#DE5254"/>
<path d="M120.107 9.78788C120.107 9.78788 124.464 -1.33324 129.965 0.12853C135.465 1.5903 126.823 13.0856 126.823 13.0856L120.107 9.78788Z" fill="#EA9C1A"/>
<path d="M119.687 29.5158L129.124 9.96317C129.124 9.96317 120.949 5.75328 115.436 10.3491C109.924 14.9449 109.877 26.8963 119.687 29.5158Z" fill="#AA1D21"/>
<path d="M118.344 26.4404C118.349 27.089 118.546 27.7215 118.91 28.2579C119.274 28.7942 119.789 29.2102 120.39 29.453C120.99 29.6958 121.65 29.7545 122.284 29.6217C122.918 29.4889 123.498 29.1705 123.951 28.707C124.404 28.2435 124.71 27.6556 124.829 27.0181C124.947 26.3805 124.875 25.722 124.619 25.1259C124.364 24.5299 123.938 24.0231 123.394 23.6701C122.851 23.317 122.215 23.1334 121.567 23.1427C121.139 23.1472 120.717 23.2362 120.323 23.4044C119.929 23.5726 119.573 23.8168 119.273 24.123C118.974 24.4293 118.738 24.7915 118.579 25.1891C118.419 25.5868 118.339 26.0119 118.344 26.4404Z" fill="#995E69"/>
<path d="M123.798 26.8029C123.806 26.5062 123.767 26.2101 123.682 25.9259C123.614 25.6358 123.486 25.3636 123.304 25.1275C123.123 24.8915 122.893 24.6972 122.631 24.5577C122.191 24.3766 121.711 24.316 121.241 24.3822C121.127 24.3852 121.019 24.4317 120.938 24.5123C120.858 24.5928 120.812 24.7011 120.809 24.8149C120.809 25.0371 121.007 25.2827 121.241 25.2593C121.435 25.2421 121.63 25.2421 121.825 25.2593H121.965L122.198 25.3295H122.257H122.339C122.402 25.3558 122.461 25.3913 122.514 25.4347C122.595 25.4932 122.432 25.3646 122.514 25.4347L122.631 25.7271C122.631 25.7271 122.56 25.6218 122.631 25.7271V25.7972L122.724 25.9493V26.0194C122.724 26.1247 122.724 25.9493 122.724 26.0194C122.724 26.0896 122.724 26.113 122.724 26.1715C122.73 26.2649 122.73 26.3586 122.724 26.4521C122.73 26.4908 122.73 26.5303 122.724 26.5691C122.724 26.3703 122.724 26.5691 122.724 26.5691C122.73 26.6547 122.73 26.7407 122.724 26.8263C122.727 26.9401 122.773 27.0485 122.854 27.129C122.934 27.2095 123.042 27.256 123.156 27.259C123.272 27.259 123.383 27.2138 123.466 27.133C123.549 27.0522 123.597 26.9421 123.6 26.8263L123.798 26.8029Z" fill="#210E2C"/>
<path d="M124.663 41.0462L129.545 40.9877C130.164 40.9877 130.758 40.7413 131.196 40.3027C131.635 39.8641 131.881 39.2692 131.881 38.6489C131.881 38.0286 131.635 37.4337 131.196 36.9951C130.758 36.5565 130.164 36.3101 129.545 36.3101L124.663 36.3685C124.043 36.3685 123.449 36.6149 123.011 37.0536C122.573 37.4922 122.327 38.0871 122.327 38.7074C122.327 39.0145 122.388 39.3186 122.505 39.6024C122.622 39.8861 122.794 40.144 123.011 40.3612C123.228 40.5783 123.486 40.7506 123.769 40.8681C124.052 40.9857 124.356 41.0462 124.663 41.0462Z" fill="#210E2C"/>
<path d="M124.885 24.8381L129.405 27.2588" stroke="#210E2C" stroke-width="0.75" stroke-miterlimit="10"/>
<path d="M129.767 29.0015L123.156 31.4806" stroke="#210E2C" stroke-width="0.75" stroke-miterlimit="10"/>
<path d="M139.728 24.2185L128.797 26.8965L130.339 32.8488C130.339 32.8488 135.29 34.4626 137.988 31.2818C138.839 30.34 139.443 29.202 139.746 27.9694C140.05 26.7369 140.044 25.4481 139.728 24.2185Z" fill="white"/>
<path d="M107.775 89.694C107.658 87.667 107.6 85.6088 107.6 83.5195C107.6 58.6461 116.044 38.4971 126.45 38.4971C136.856 38.4971 145.311 58.6461 145.311 83.5195C145.311 85.3672 145.311 87.1915 145.171 88.9923L107.775 89.694Z" fill="#F2B411"/>
<path d="M145.288 85.1917C145.288 86.478 145.23 87.741 145.171 88.9922L107.798 89.6939C107.717 88.2204 107.67 86.7119 107.646 85.1917H145.288Z" fill="#210E2C"/>
<path d="M190.731 71.5096L143.15 80.0229L135.699 36.9066L183.268 28.3816L190.731 71.5096Z" fill="#F0B66F"/>
<path d="M162.384 33.2459L157.25 34.0767L158.814 43.7668L163.948 42.936L162.384 33.2459Z" fill="white"/>
<path d="M168.684 66.7283L163.551 67.5591L165.115 77.2492L170.248 76.4184L168.684 66.7283Z" fill="#CFCFCD"/>
<path d="M167.77 80.6894C163.834 82.0342 160.762 83.0282 160.762 83.0282L156.663 73.7898C159.296 72.9948 161.875 72.03 164.383 70.9014L167.77 80.6894Z" fill="#995E69"/>
<path d="M162.62 71.7201C163.461 71.3692 164.302 70.995 165.108 70.5506C168.787 68.7147 175.21 63.7447 175.689 64.61C176.168 65.4754 172.01 69.4748 172.01 69.4748C172.01 69.4748 181.785 65.8496 182.194 66.6565C182.603 67.4634 177.161 70.7378 177.161 70.7378C177.161 70.7378 183.21 68.4691 183.409 69.3461C183.607 70.2232 177.569 73.1 177.569 73.1C177.569 73.1 183.911 71.0184 183.958 71.8604C184.004 72.7024 178.691 75.0997 178.691 75.0997C178.691 75.0997 184.88 73.0766 183.981 74.4565C183.374 75.392 172.933 79.0289 166.276 81.2625L162.62 71.7201Z" fill="white"/>
<path d="M158.543 73.2402C158.543 73.2402 141.445 76.6081 135.863 53.8513C130.28 31.0945 116.008 39.9938 114.14 54.7868C112.808 65.5221 114.747 72.0942 125.819 80.8531C136.89 89.612 157.971 85.1916 162.211 82.5721L158.543 73.2402Z" fill="#00933F"/>
<path d="M157.446 84.338L153.802 73.252C155.374 73.4812 156.971 73.4812 158.543 73.252L162.199 82.6073C160.695 83.3847 159.097 83.9664 157.446 84.338Z" fill="#210E2C"/>
<path d="M133.703 21.2366L131.846 21.8564" stroke="#210E2C" stroke-width="0.75" stroke-miterlimit="10"/>
<path d="M187.805 191H15.1949C12.3258 191 10 191.448 10 192C10 192.552 12.3258 193 15.1949 193H187.805C190.674 193 193 192.552 193 192C193 191.448 190.674 191 187.805 191Z" fill="#ADBEC4"/>
</g>
<defs>
<clipPath id="clip0_271_1459">
<rect width="207" height="193" fill="white"/>
</clipPath>
</defs>
</svg>
