<svg width="268" height="170" viewBox="0 0 268 170" fill="none" xmlns="http://www.w3.org/2000/svg">
<path d="M174.896 169.724H195.679V92.6414H174.896V169.724Z" fill="#82B479"/>
<path d="M165.191 169.724H180.462V92.6414H165.191V169.724Z" fill="#A8D29F"/>
<path d="M173.084 164.95C174.967 164.95 176.493 163.431 176.493 161.557C176.493 159.683 174.967 158.164 173.084 158.164C171.201 158.164 169.675 159.683 169.675 161.557C169.675 163.431 171.201 164.95 173.084 164.95Z" fill="#82B479"/>
<path d="M205.382 169.724H226.165V92.6414H205.382V169.724Z" fill="#699DEE"/>
<path d="M195.679 169.724H210.95V92.6414H195.679V169.724Z" fill="#AFCDFB"/>
<path d="M203.57 164.95C205.453 164.95 206.979 163.431 206.979 161.557C206.979 159.683 205.453 158.164 203.57 158.164C201.687 158.164 200.161 159.683 200.161 161.557C200.161 163.431 201.687 164.95 203.57 164.95Z" fill="#699DEE"/>
<path d="M206.979 100.485H200.161V140.943H206.979V100.485Z" fill="white"/>
<path d="M235.512 169.724H256.295V92.6414H235.512V169.724Z" fill="#D86713"/>
<path d="M225.808 169.724H241.079V92.6414H225.808V169.724Z" fill="#F1A34F"/>
<path d="M233.7 164.95C235.583 164.95 237.109 163.431 237.109 161.557C237.109 159.683 235.583 158.164 233.7 158.164C231.817 158.164 230.291 159.683 230.291 161.557C230.291 163.431 231.817 164.95 233.7 164.95Z" fill="#D86713"/>
<path d="M237.11 100.485H230.292V140.943H237.11V100.485Z" fill="white"/>
<path d="M176.236 101.003H169.418V141.461H176.236V101.003Z" fill="white"/>
<path d="M125.003 77.7039L132.33 164.423C132.33 164.423 133.098 169.68 129.17 169.69C122.711 169.705 97.0198 169.69 97.0198 169.69C97.0198 169.69 101.882 168.595 101.822 166.134C101.753 163.237 93.2578 76.8831 93.2578 76.8831L125.003 77.7039Z" fill="#D86713"/>
<path d="M94.935 168.116C96.206 168.116 120.744 168.197 127.034 168.116C129.775 168.082 130.257 165.691 130.278 164.142C130.287 163.71 130.26 163.279 130.196 162.852L130.006 160.597L129.52 154.853L129.091 149.777L128.541 143.259L128.076 137.753L122.868 76.1299L91.1221 75.3103C91.1221 75.3103 94.7009 111.446 97.2307 137.75C97.5133 140.68 97.7825 143.49 98.0312 146.115C98.1112 146.951 98.1888 147.771 98.264 148.567C98.4993 151.056 98.7139 153.341 98.9007 155.36C98.9989 156.423 99.0899 157.412 99.1712 158.317C99.495 161.864 99.6842 164.13 99.6866 164.56C99.6886 164.795 99.6679 165.031 99.6247 165.262C99.1032 168.024 95.4116 168.116 94.935 168.116Z" fill="#EE9849"/>
<path d="M49.6884 30.5149H202.099L184.25 101.874L181.806 111.647L173.493 144.885H19.0469L49.6884 30.5149Z" fill="#F1A34F"/>
<path d="M202.099 30.5149L204.573 31.3357L176.781 147.366L173.492 144.885L202.099 30.5149Z" fill="#EE9849"/>
<path d="M176.782 147.366H23.2864L19.0479 144.885H173.493L176.782 147.366Z" fill="#D86713"/>
<path d="M122.88 168.151H89.6455V169.722H122.88V168.151Z" fill="#F1A34F"/>
<path d="M98.0928 147.366L98.2638 148.567L129.519 154.853L129.09 149.777L128.886 147.366H98.0928Z" fill="#D86713"/>
<path opacity="0.4" d="M94.9355 168.116C96.2065 168.116 120.744 168.196 127.035 168.116C129.776 168.082 130.257 165.691 130.279 164.142L99.1717 158.317C99.4955 161.864 99.6847 164.13 99.6871 164.56C99.6891 164.795 99.6684 165.03 99.6253 165.262C99.1038 168.024 95.4122 168.116 94.9355 168.116Z" fill="#D86713"/>
<path opacity="0.4" d="M107.654 122.416L173.493 144.885L179.115 122.403L107.654 122.416Z" fill="#D86713"/>
<path d="M49.6883 30.5149H202.099L179.128 122.403L24.959 122.432L49.6883 30.5149Z" fill="#F1A34F"/>
<path d="M92.1761 134.051C92.6164 131.796 94.809 129.97 97.0733 129.97C99.3375 129.97 100.817 131.796 100.377 134.051C99.9366 136.306 97.7439 138.132 95.4797 138.132C93.2155 138.132 91.7359 136.306 92.1761 134.051Z" fill="#D86713"/>
<path d="M32.1465 118.448H174.85L191.01 54.3711L192.25 49.4571L193.307 45.265L195.785 35.437H55.1392L52.4177 45.265L51.2559 49.4571L49.8952 54.3711L32.1465 118.448Z" fill="#E9F3FE"/>
<path d="M55.1394 35.437H195.785L193.308 45.265H52.418L55.1394 35.437Z" fill="#A8D29F"/>
<path d="M189.041 38.6501C189.722 38.6501 190.132 39.2006 189.967 39.8789C189.803 40.5573 189.106 41.1077 188.425 41.1077C187.743 41.1077 187.333 40.5573 187.498 39.8789C187.663 39.2006 188.358 38.6501 189.041 38.6501Z" fill="#E9F3FE"/>
<path d="M184.946 38.6501C185.628 38.6501 186.038 39.2006 185.873 39.8789C185.708 40.5573 185.012 41.1077 184.33 41.1077C183.649 41.1077 183.239 40.5573 183.404 39.8789C183.569 39.2006 184.259 38.6501 184.946 38.6501Z" fill="#E9F3FE"/>
<path d="M178.982 39.8789C179.152 39.2006 179.842 38.6501 180.523 38.6501C181.205 38.6501 181.615 39.2006 181.45 39.8789C181.285 40.5573 180.59 41.1077 179.908 41.1077C179.227 41.1077 178.811 40.5573 178.982 39.8789Z" fill="#E9F3FE"/>
<path d="M110.372 103.967H43.752L66.5263 12.2612H133.147L110.372 103.967Z" fill="#AFCDFB"/>
<path d="M100.42 98.2459H33.7998L56.5754 6.53882H123.196L100.42 98.2459Z" fill="#C0D8F9"/>
<path d="M89.638 91.7071H23.0176L45.7932 0H112.414L89.638 91.7071Z" fill="#D4E3F4"/>
<path d="M121.838 12.2612L100.759 97.6976L45.375 98.2456L102.432 99.4949L121.838 12.2612Z" fill="#699DEE"/>
<path d="M110.773 6.53882L90.7475 91.158L35.3633 91.7072L91.6886 93.0917L110.773 6.53882Z" fill="#699DEE"/>
<path d="M61.8826 31.7811H43.251L49.0843 8.48584H67.7159L61.8826 31.7811Z" fill="#E9F3FE"/>
<path d="M104.417 11.7051H71.0361L71.8572 8.48584H105.238L104.417 11.7051Z" fill="#AFCDFB"/>
<path d="M102.913 18.3125H69.5303L70.3513 15.0933H103.734L102.913 18.3125Z" fill="#AFCDFB"/>
<path d="M101.338 24.919H67.9561L68.7771 21.7009H102.159L101.338 24.919Z" fill="#AFCDFB"/>
<path d="M99.4895 31.5261H66.1084L66.9294 28.3081H100.311L99.4895 31.5261Z" fill="#AFCDFB"/>
<path d="M99.4893 38.4065H38.3809L39.2019 35.1885H100.31L99.4893 38.4065Z" fill="#AFCDFB"/>
<path d="M97.8584 45.2871H36.75L37.571 42.0679H98.6795L97.8584 45.2871Z" fill="#AFCDFB"/>
<path d="M95.5994 53.0337H34.4922L35.3132 49.8157H96.4216L95.5994 53.0337Z" fill="#AFCDFB"/>
<path d="M93.5469 59.7231H32.4385L33.2595 56.5051H94.368L93.5469 59.7231Z" fill="#AFCDFB"/>
<path d="M63.5093 34.0984C63.5093 34.0984 64.6008 33.6023 65.0277 33.7532C65.4546 33.9041 66.6116 34.4014 66.58 34.9011C66.5485 35.4008 64.6978 35.9512 63.4571 35.3477C62.2165 34.7442 63.5093 34.0984 63.5093 34.0984Z" fill="#E49963"/>
<path d="M63.833 35.4637C63.8143 35.5242 63.7883 35.5822 63.7554 35.6363C63.3915 36.2254 57.3277 36.2555 56.6389 35.757C56.3296 35.5361 56.235 32.4859 56.2253 29.1821C56.2144 25.0974 56.3308 20.6216 56.3308 20.6216C56.3308 20.6216 58.6969 21.72 58.8182 23.0671C58.9395 24.4142 57.9378 32.51 58.6302 33.0049C59.3227 33.4998 62.5111 33.5638 63.5795 33.8752C63.5771 33.8752 64.0331 34.8445 63.833 35.4637Z" fill="#A8D2A0"/>
<path d="M57.7056 11.3379C57.292 10.9082 56.6141 10.8683 56.1787 10.8381C56.284 10.7714 56.4046 10.7323 56.5292 10.7247C56.266 10.6498 55.6342 10.8369 55.6342 10.8369C55.6342 10.8369 53.5179 9.38846 52.082 12.2166C52.082 12.2166 52.2918 12.0162 52.5732 11.7954C51.7449 13.4201 52.0226 16.0768 53.8733 16.7818C55.0775 17.2404 61.9527 15.7401 57.7056 11.3379Z" fill="#163560"/>
<path d="M56.4239 21.3009C56.436 21.3082 55.1444 21.7777 54.2652 21.412C53.4393 21.0692 53.0233 19.8911 53.0354 19.8899C53.4077 19.8657 53.5775 19.3829 53.8468 17.25L54.0068 17.3031L56.6931 18.2024C56.6931 18.2024 56.5185 19.0582 56.4105 19.8718C56.3196 20.5538 56.2723 21.2068 56.4239 21.3009Z" fill="#E49963"/>
<path d="M56.6921 18.2025C56.6921 18.2025 56.5175 19.0583 56.4095 19.8719C54.8718 19.6305 54.2387 18.1228 54.0059 17.3032L56.6921 18.2025Z" fill="#D68D5D"/>
<path d="M53.7607 16.9678C53.7607 16.9678 53.1179 15.5917 53.0657 14.48C53.0282 13.6858 53.8007 10.8588 56.6507 11.6482C57.2271 11.8041 57.761 12.0872 58.2127 12.4763C58.7887 12.9808 59.5795 14.0141 58.2345 16.3932L57.8598 17.208L53.7607 16.9678Z" fill="#163560"/>
<path d="M57.1076 19.0392C57.1076 19.0392 53.4499 18.6288 53.7422 16.3643C54.0345 14.0998 53.7592 12.5234 56.1071 12.6912C58.455 12.859 58.7958 13.7775 58.8831 14.5585C58.9704 15.3395 58.0669 19.0886 57.1076 19.0392Z" fill="#E49963"/>
<path d="M57.3478 24.1653C57.3175 23.8997 57.8899 23.7754 57.993 24.0229C58.1883 24.4852 58.1677 25.0344 58.2113 25.4798C58.3326 26.7508 57.8305 28.4033 57.8305 28.4033L57.3478 24.1653Z" fill="#82B479"/>
<path d="M58.9397 13.2863C58.4643 12.533 58.0193 12.626 57.7537 12.8034C57.1182 11.5276 54.404 12.9036 54.404 12.9036C54.1132 13.8723 53.4933 14.7103 52.6504 15.2743C52.6504 15.2743 53.2628 15.7692 54.8467 15.5737C56.0946 15.4216 57.1934 13.8234 57.6045 13.1499C57.7973 13.3708 58.1975 13.8741 58.2776 14.3255C58.3843 14.9291 58.3127 16.1229 58.6644 16.1265C58.6632 16.1229 59.6516 14.4161 58.9397 13.2863Z" fill="#163560"/>
<path d="M56.4746 17.5629C56.4746 17.5629 56.5061 17.8586 57.2302 17.9069C57.2302 17.9069 57.8365 17.9479 57.8608 17.6293C57.8608 17.6293 57.3053 17.3299 56.4746 17.5629Z" fill="white"/>
<path d="M63.8337 35.4636C63.8151 35.5241 63.789 35.5821 63.7561 35.6362C63.3923 36.2252 57.3285 36.2554 56.6397 35.7569C56.3304 35.536 56.231 31.7458 57.0835 28.4771C57.2861 30.4361 56.915 34.3507 57.9446 34.6705C59.1125 35.0363 62.3008 35.0435 63.8337 35.4636Z" fill="#82B479"/>
<path d="M58.0341 28.5847C55.6292 35.4927 56.7255 36.7421 55.8656 37.3408C55.8656 37.3408 55.1453 37.5472 55.138 37.5508C54.2466 38.1386 54.3351 37.2985 51.6756 38.0602C50.4094 38.4223 48.7819 38.9051 47.386 39.1465C46.9085 39.2319 46.4244 39.2763 45.9392 39.2793C45.117 39.2697 44.5312 39.0512 44.4051 38.4814C44.0413 36.8278 47.3327 32.9832 47.0198 30.032L47.0125 29.9559C46.9991 29.6677 47.0252 29.3789 47.0901 29.0977C47.4273 27.5152 48.7431 25.3232 50.0529 23.4752C51.4973 21.4376 52.9332 19.8177 53.0326 19.895C55.8572 22.0979 56.3289 20.6301 56.3289 20.6301C56.3289 20.6301 58.8539 26.2285 58.0341 28.5847Z" fill="#A8D2A0"/>
<path d="M55.3968 37.4832C54.5054 38.0711 54.338 37.2986 51.6785 38.0602C50.4124 38.4223 48.7848 38.9052 47.389 39.1466C46.6868 39.1768 46.1629 39.2154 45.9421 39.2794C45.1199 39.2697 44.5341 39.0512 44.408 38.4815C44.0442 36.8278 47.3356 32.9833 47.0227 30.032L47.0154 29.956C46.9951 29.6676 47.0213 29.3779 47.0931 29.0977C47.3962 27.9015 48.4659 26.6993 49.732 24.9116C50.319 25.7143 55.5326 25.5441 53.4054 32.4522C52.7554 34.5646 55.3022 35.7608 55.3968 37.4832Z" fill="#82B479"/>
<path d="M55.101 37.8113C55.101 37.8113 56.2616 37.6906 56.7492 37.9658C57.2367 38.241 58.1984 38.9061 58.065 39.1728C57.9316 39.4396 56.6922 39.4408 56.2143 39.0896C55.7365 38.7383 55.3072 39.0497 54.7057 38.7588C54.1041 38.4679 55.101 37.8113 55.101 37.8113Z" fill="#E49963"/>
<path d="M53.0353 19.89C53.0353 19.89 48.8768 19.4072 47.8726 21.3083C46.8684 23.2094 46.1857 30.2406 46.9982 32.4894C47.8108 34.7381 53.6211 38.3823 54.2942 38.5851C54.9672 38.7878 55.5324 37.7896 55.5178 37.6713C55.5033 37.553 49.716 31.508 49.8179 30.9709C49.9197 30.4337 53.0353 19.89 53.0353 19.89Z" fill="#A8D2A0"/>
<path d="M191.963 158.572L190.478 164.799L188.253 164.786L188.171 158.572H191.963Z" fill="#E49963"/>
<path d="M173.248 158.837L169.021 164.799L167.373 162.694L169.917 158.017L173.248 158.837Z" fill="#E49963"/>
<path d="M184.235 76.7455C185.004 76.3109 185.924 76.2627 186.568 76.3013C186.426 76.1839 186.257 76.1041 186.076 76.0695C186.475 76.0104 187.366 76.4039 187.366 76.4039C192.919 74.2746 193.794 82.4127 193.672 84.3042C193.551 86.1956 195.539 86.8124 198.428 88.302C203.941 91.1446 204.425 94.9505 204.425 94.9505C204.382 94.9759 204.338 95.0048 204.289 95.0374C204.016 94.5763 203.452 93.7096 202.978 93.5793C202.996 93.6215 203.54 94.7719 203.742 95.4309C202.116 96.6621 199.073 99.3913 196.951 101.325C196.959 100.947 196.951 100.41 196.805 100.128L196.543 101.697C195.409 102.735 194.627 103.466 194.627 103.466C194.766 101.938 187.683 93.8738 183.987 91.4597C183.088 90.1415 182.769 87.8131 182.744 87.6296C182.9 89.4752 183.217 90.5109 183.501 91.0951C180.377 88.2283 182.2 77.897 184.235 76.7455Z" fill="#163560"/>
<path d="M184.218 91.5791C184.199 91.5875 186.002 92.5194 187.358 92.15C188.634 91.8048 189.467 90.1584 189.45 90.1547C188.909 90.0473 188.754 89.3098 188.765 86.134L188.522 86.1823L184.416 86.991C184.416 86.991 184.509 88.2778 184.511 89.4884C184.509 90.506 184.447 91.4704 184.218 91.5791Z" fill="#E49963"/>
<path d="M184.41 86.9911C184.41 86.9911 184.504 88.2778 184.506 89.4885C186.81 89.4245 188.023 87.3375 188.517 86.1824L184.41 86.9911Z" fill="#D68D5D"/>
<path d="M188.94 85.737C188.94 85.737 190.143 83.8431 190.433 82.2244C190.639 81.0681 190.047 76.7829 185.722 77.3961C184.85 77.5165 184.017 77.83 183.284 78.3135C182.344 78.9448 180.988 80.3088 182.504 84.0471L182.898 85.3109L188.94 85.737Z" fill="#163560"/>
<path d="M168.044 161.059L170.221 161.126L172.577 161.198C172.577 161.198 178.019 155.163 181.067 145.506C181.138 145.282 181.212 145.055 181.292 144.824C182.962 139.975 186.426 133.891 188.251 128.381C188.542 127.504 188.803 126.678 189.037 125.897C189.111 125.646 189.185 125.401 189.254 125.159C190.599 120.508 190.988 117.454 191.347 114.191L178.168 114.296C178.168 114.296 176.046 136.569 168.044 161.059Z" fill="#2B478B"/>
<path d="M180.018 106.752C180.051 112.994 179.098 115.672 179.098 115.672C179.098 115.672 184.741 118.526 191.446 116.426C191.526 116.4 196.49 115.409 196.49 115.409C196.378 115.157 195.008 110.838 194.899 110.606C193.483 107.58 193.288 106.112 193.121 105.183C192.809 103.446 192.802 101.649 192.957 99.9527C193.223 97.1697 193.768 94.42 194.583 91.7447C192.757 91.3307 191.046 90.604 189.143 89.8942C188.706 90.4362 187.369 91.0035 186.208 90.9806C184.874 90.9516 184.44 90.3831 184.51 89.7615C183.086 90.5497 181.951 91.2945 181.951 91.2945C180.738 93.3863 178.287 95.4178 178.109 98.6262C178.064 99.4083 180.017 106.584 180.018 106.752Z" fill="#E7F1FD"/>
<path d="M172.367 97.4791C174.307 95.2304 179.314 90.3574 184.486 89.7539L180.023 98.4086C180.023 98.4086 179.772 99.8909 178.447 100.755C175.208 102.874 171.092 103.809 171.092 103.809C171.092 103.809 168.303 102.602 164.494 99.8257C163.298 98.953 161.196 95.6263 161.196 95.6263L161.763 93.7384C161.763 93.7384 165.332 95.7241 166.606 96.2962C167.334 96.6233 169.005 97.4019 170.184 97.9535C170.55 98.1239 170.962 98.1697 171.356 98.084C171.751 97.9982 172.106 97.7857 172.367 97.4791Z" fill="#699DEE"/>
<path d="M183.642 88.1379C183.642 88.1379 189.079 88.2272 189.083 84.8571C189.086 81.4869 189.791 79.2285 186.32 79.0294C182.849 78.8302 182.174 80.1157 181.897 81.2395C181.621 82.3633 182.228 88.0281 183.642 88.1379Z" fill="#E49963"/>
<path d="M183.844 78.9424C183.844 78.9424 185.333 82.8967 187.617 83.4809C189.9 84.0652 190.891 83.4568 190.891 83.4568C189.764 82.4715 189.016 81.127 188.775 79.6533C188.775 79.6533 184.967 77.0642 183.844 78.9424Z" fill="#163560"/>
<path d="M184.218 79.267C184.218 79.267 183.107 80.1494 182.835 81.0088C182.564 81.8683 182.442 83.633 181.926 83.5739C181.926 83.5739 180.804 80.8857 182.064 79.3648C183.395 77.7533 184.218 79.267 184.218 79.267Z" fill="#163560"/>
<path d="M161.766 93.7326C161.766 93.7326 161.001 90.983 157.964 91.3716C157.615 91.4803 156.597 91.8846 157.247 92.9698C157.733 93.7688 157.935 93.356 158.691 94.4315C159.446 95.507 160.267 95.7484 161.2 95.6204L161.766 93.7326Z" fill="#E49963"/>
<path d="M190.552 164.451C190.46 165.312 190.557 166.183 190.835 167.004C190.835 167.004 191.199 168.655 189.565 168.686C187.931 168.716 187.53 168.565 187.716 167.55C187.901 166.535 188.253 164.786 188.253 164.786L190.552 164.451Z" fill="#E49963"/>
<path d="M187.562 169.391C187.595 169.41 187.629 169.429 187.664 169.445H190.863C190.894 169.429 190.924 169.411 190.953 169.391C191.138 168.562 190.831 167.003 190.831 167.003C188.981 168.693 187.823 166.962 187.823 166.962C187.527 167.683 187.562 169.391 187.562 169.391Z" fill="#D86713"/>
<path d="M163.435 167.715C163.435 167.715 166.449 164.387 167.373 162.694L169.614 163.836L164.605 168.517L163.434 168.363L163.435 167.715Z" fill="#E49963"/>
<path d="M161.566 169.445H165.69C166.088 169.15 166.459 168.466 166.92 167.548C167.162 167.066 167.716 166.789 168.284 166.642V169.418H169.139L169.949 166.472C170.482 165.495 169.99 164.61 169.616 163.84C169.179 163.84 168.004 164.137 165.778 166.633C165.051 167.453 164.239 167.745 163.437 167.72L163.404 167.738C162.06 168.333 161.677 169.08 161.566 169.445Z" fill="#D86713"/>
<path d="M184.509 89.7539C184.509 89.7539 181.363 97.4876 181.271 99.0483C181.179 100.609 180.907 124.638 180.907 124.638C180.907 124.638 181.093 125.744 178.967 125.283C176.841 124.822 176.284 124.362 176.284 124.362C176.284 124.362 178.319 109.54 177.765 104.384C177.211 99.227 182.019 90.8197 182.019 90.8197L184.509 89.7539Z" fill="#699DEE"/>
<path d="M170.221 161.126L172.577 161.198C172.577 161.198 178.019 155.163 181.066 145.506C181.138 145.282 181.212 145.055 181.292 144.824C182.962 139.975 186.426 133.89 188.251 128.381C188.542 127.504 188.803 126.678 189.037 125.897C189.111 125.646 189.185 125.401 189.254 125.158L187.313 123.693C187.313 123.693 181.492 133.083 179.683 141.92C178.121 149.592 171.848 158.828 170.221 161.126Z" fill="#233862"/>
<path d="M187.116 142.738C187.082 147.036 187.3 156.917 187.863 161.007H189.95C191.103 161.007 191.678 160.991 191.678 160.991C193.089 153.878 194.093 147.993 194.823 142.922C195.429 138.761 195.956 135.197 196.365 132.122C196.778 129.031 197.064 126.449 197.167 124.257C197.183 123.913 197.195 123.577 197.201 123.253C197.207 122.928 197.21 122.608 197.201 122.299L185.814 121.195C185.964 128.724 187.129 140.241 187.116 142.738Z" fill="#2B478B"/>
<path d="M189.95 161.007C191.104 161.007 191.678 160.99 191.678 160.99C193.089 153.878 194.093 147.993 194.823 142.922C195.429 138.761 195.956 135.196 196.366 132.122C196.778 129.031 197.064 126.449 197.167 124.257L192.989 126.702C192.989 126.702 195.657 127.639 194.639 134.728C193.62 141.817 191.365 160.003 189.95 161.007Z" fill="#233862"/>
<path d="M189.411 124.187C189.411 124.187 190.213 127.072 192.989 126.702C195.765 126.333 199.71 124.678 199.71 124.678C199.71 124.678 198.524 120.948 197.049 116.048C195.264 110.116 193.055 102.469 192.013 97.6458C191.763 96.5611 191.574 95.4634 191.446 94.3577L189.142 89.9109C189.142 89.9109 185.709 97.5794 185.525 99.5131C185.34 101.447 189.411 124.187 189.411 124.187Z" fill="#699DEE"/>
<path d="M189.535 103.566C189.656 106.696 190.398 112.773 196.997 116.026L197.049 116.05C195.264 110.118 193.054 102.472 192.012 97.6482C190.801 99.4479 189.467 101.84 189.535 103.566Z" fill="#4A75CB"/>
<path d="M152.429 78.0462L150.348 80.1177L158.623 88.3542L160.704 86.2827L152.429 78.0462Z" fill="#2B478B"/>
<path d="M158.549 85.4876L157.824 86.2097C156.395 87.6314 156.395 89.9365 157.824 91.3582L198.318 131.663C199.746 133.084 202.062 133.084 203.491 131.663L204.216 130.94C205.645 129.519 205.645 127.214 204.216 125.792L163.722 85.4876C162.293 84.0659 159.978 84.0659 158.549 85.4876Z" fill="#C65447"/>
<path d="M102.382 30.3059C88.8661 43.7575 88.8661 65.5693 102.382 79.0221C115.898 92.4749 137.812 92.4737 151.328 79.0221C164.844 65.5705 164.843 43.7575 151.328 30.3059C137.813 16.8544 115.897 16.8531 102.382 30.3059ZM148.632 76.3388C136.604 88.3093 117.1 88.3093 105.078 76.3388C93.0561 64.3683 93.0501 44.9549 105.078 32.9893C117.106 21.0236 136.61 21.0175 148.632 32.9893C160.654 44.961 160.659 64.367 148.632 76.3388Z" fill="#C65447"/>
<path d="M192.182 99.221L189.143 89.9072C189.152 89.9072 192.981 91.0419 194.907 92.0099C194.907 92.0099 196.112 93.555 196.856 97.1195C196.856 97.1195 197.643 105.678 195.886 108.808C195.886 108.808 190.336 109.913 181.454 106.876V104.853C181.454 104.853 191.166 105.359 193.155 105.589L192.182 99.221Z" fill="#E49963"/>
<path d="M189.143 89.9109C189.143 89.9109 194.776 90.3068 196.133 93.3136C197.49 96.3204 197.921 106.326 196.195 109.272C196.195 109.272 193.817 109.946 189.612 109.164L189.457 109.133C189.457 109.133 188.115 105.866 189.318 105.221C189.318 105.221 192.865 105.405 192.495 104.239C192.125 103.073 189.143 89.9109 189.143 89.9109Z" fill="#699DEE"/>
<path d="M182.452 105.392C182.452 105.392 181.678 104.459 181.513 103.505C181.349 102.551 180.836 101.845 179.5 101.671C178.165 101.498 177.591 101.477 177.594 101.852C177.596 102.228 178.685 104.842 180.601 106.405C182.518 107.969 182.452 105.392 182.452 105.392Z" fill="#E49963"/>
<path opacity="0.4" d="M140.492 26.9597L99.2471 68.0121C99.918 69.3632 100.688 70.6631 101.551 71.9013L144.402 29.2519C143.157 28.3929 141.85 27.6267 140.492 26.9597Z" fill="white"/>
<path opacity="0.4" d="M137.665 25.7419C134.212 24.4591 130.556 23.8049 126.871 23.8106C109.862 23.8106 96.0743 37.535 96.0743 54.4702C96.0685 58.138 96.7258 61.7769 98.0147 65.2131L137.665 25.7419Z" fill="white"/>
<path opacity="0.4" d="M113.233 81.9453C117.475 84.034 122.144 85.1176 126.876 85.1115C143.885 85.1115 157.673 71.3883 157.673 54.4592C157.679 49.7494 156.591 45.1019 154.491 40.8809L113.233 81.9453Z" fill="white"/>
</svg>
