<svg width="315" height="213" viewBox="0 0 315 213" fill="none" xmlns="http://www.w3.org/2000/svg">
<path d="M64.3623 209.487H28.0559C27.2813 209.487 26.6533 210.115 26.6533 210.888V211.065C26.6533 211.839 27.2813 212.466 28.0559 212.466H64.3623C65.1369 212.466 65.7648 211.839 65.7648 211.065V210.888C65.7648 210.115 65.1369 209.487 64.3623 209.487Z" fill="#ADBEC4"/>
<path d="M297.372 209.487H287.779C287.004 209.487 286.376 210.115 286.376 210.888V211.065C286.376 211.839 287.004 212.466 287.779 212.466H297.372C298.147 212.466 298.775 211.839 298.775 211.065V210.888C298.775 210.115 298.147 209.487 297.372 209.487Z" fill="#ADBEC4"/>
<path d="M133.568 209.487H97.2619C96.4873 209.487 95.8594 210.115 95.8594 210.888V211.065C95.8594 211.839 96.4873 212.466 97.2619 212.466H133.568C134.343 212.466 134.971 211.839 134.971 211.065V210.888C134.971 210.115 134.343 209.487 133.568 209.487Z" fill="#ADBEC4"/>
<path d="M187.563 209.487H151.257C150.482 209.487 149.854 210.115 149.854 210.888V211.065C149.854 211.839 150.482 212.466 151.257 212.466H187.563C188.338 212.466 188.966 211.839 188.966 211.065V210.888C188.966 210.115 188.338 209.487 187.563 209.487Z" fill="#ADBEC4"/>
<path d="M253.692 209.487H204.026C203.251 209.487 202.623 210.115 202.623 210.888V211.065C202.623 211.839 203.251 212.466 204.026 212.466H253.692C254.467 212.466 255.095 211.839 255.095 211.065V210.888C255.095 210.115 254.467 209.487 253.692 209.487Z" fill="#ADBEC4"/>
<path d="M76.9444 45.6121C76.9444 45.6121 73.0653 42.9699 67.3829 45.0036C61.7005 47.0373 60.4262 54.6758 61.8287 60.8811C63.2313 67.0864 55.417 88.2564 55.417 88.2564C55.417 88.2564 59.4804 93.9732 73.6904 91.7874C73.6904 91.7874 84.2858 72.571 83.5004 58.7433C82.7149 44.9155 76.9444 45.6121 76.9444 45.6121Z" fill="#0E3944"/>
<path d="M81.4092 69.4642C86.7469 67.7588 90.0169 72.2026 93.0705 80.4656C96.1241 88.7286 97.158 89.5613 97.158 89.5613L109.004 97.1438L108.018 101.556C108.018 101.556 96.7973 97.1598 94.0643 94.3494C91.3313 91.539 83.5331 77.391 83.5331 77.391L81.4092 69.4642Z" fill="#EF6E4B"/>
<path d="M55.3858 122.862C55.3858 122.862 53.0696 134.616 53.4543 152.231C53.4543 152.231 44.3256 165.674 51.8514 204.043H55.8026C55.8026 204.043 59.0085 171.399 61.501 162.552C63.9936 153.704 73.0902 150.998 73.5791 124.119L55.3858 122.862Z" fill="#FF8B66"/>
<path d="M37.3281 157.331C35.0279 149.765 29.1291 137.106 13.9894 119.947C13.64 119.814 13.2628 119.77 12.892 119.819C12.5212 119.868 12.1684 120.008 11.8656 120.227C10.5752 121.028 10.5752 121.933 10.5752 121.933C10.5752 121.933 18.1651 138.467 23.0059 150.573C23.8018 152.566 25.177 154.275 26.9541 155.479C28.7312 156.684 30.8287 157.329 32.9762 157.331H37.3281Z" fill="#FF8B66"/>
<path d="M64.9227 171.943C64.9227 171.943 64.9708 177.588 61.268 177.684C56.0344 177.82 55.8421 172.128 49.9192 172.312C43.9964 172.496 31.766 173.985 27.8709 164.729C25.8673 159.925 28.6163 153.808 22.1324 149.18C15.6486 144.552 18.7983 139.38 22.1324 136.601C25.4665 133.823 20.6978 130.796 24.1682 129.395C24.9381 129.09 25.7929 129.076 26.5726 129.355C27.0169 129.512 27.4397 129.725 27.8309 129.988C29.0741 130.897 30.1346 132.033 30.9566 133.335C40.7745 106.472 58.2545 102.909 58.2545 102.909L75.5421 108.866C75.9188 150.629 64.9227 171.943 64.9227 171.943Z" fill="#164353"/>
<path d="M81.4094 69.4642C78.2275 70.3376 74.8928 70.5043 71.6395 69.9526C65.901 69.0879 64.0336 65.4848 60.0022 67.7988C53.9512 71.2818 56.7964 83.2439 58.3031 89.4652C58.8722 91.7872 59.5855 97.8804 58.223 102.917C58.223 102.917 66.2857 109.178 75.5106 108.866L80.5438 97.9284C80.5438 97.9284 91.4838 84.8453 81.4094 69.4642Z" fill="#CFD8DC"/>
<path d="M71.1661 59.4237C71.5013 63.0912 71.0111 66.7872 69.7314 70.241C69.7314 70.241 72.7209 74.6527 75.5821 71.7462C75.9662 67.8614 77.1475 64.0973 79.0525 60.6888C81.2084 56.7575 71.1661 59.4237 71.1661 59.4237Z" fill="#EF6E4B"/>
<path d="M66.5823 59.6159C66.5823 59.6159 64.0576 58.0145 64.3382 60.4886C64.6668 63.3391 67.4559 63.8915 67.7524 62.8907C68.049 61.8898 66.5823 59.6159 66.5823 59.6159Z" fill="#FF8B66"/>
<path d="M81.0648 56.5333C81.0648 56.5333 82.6677 54.0112 83.4692 56.3652C84.3828 59.0795 82.1067 60.7689 81.4094 59.9923C80.7121 59.2156 81.0648 56.5333 81.0648 56.5333Z" fill="#FF8B66"/>
<path d="M75.8471 68.1593C71.2708 69.1842 68.0168 66.7742 66.0051 57.8145C64.9712 53.1946 66.6864 49.8077 71.8157 48.6788C76.9451 47.5498 79.7422 49.8878 80.7761 54.5077C82.9401 64.1559 80.5758 67.0864 75.8471 68.1593Z" fill="#FF8B66"/>
<path d="M79.9829 58.0307C80.0483 58.2811 80.0149 58.5471 79.8896 58.7736C79.7643 59.0002 79.5567 59.1699 79.3096 59.2478C79.2006 59.3248 79.0757 59.3763 78.9441 59.3985C78.8125 59.4207 78.6775 59.4131 78.5493 59.3761C78.421 59.3391 78.3027 59.2738 78.2032 59.185C78.1036 59.0961 78.0254 58.986 77.9742 58.8628C77.923 58.7397 77.9003 58.6066 77.9076 58.4734C77.9149 58.3403 77.9521 58.2105 78.0165 58.0936C78.0809 57.9768 78.1707 57.8759 78.2794 57.7985C78.3881 57.7211 78.5129 57.6691 78.6444 57.6464C78.8738 57.5246 79.1417 57.4965 79.3914 57.5682C79.6411 57.6399 79.8532 57.8058 79.9829 58.0307Z" fill="#DB614D"/>
<path d="M70.6135 60.3847C70.6969 60.5977 70.7122 60.8314 70.6571 61.0534C70.602 61.2754 70.4793 61.4749 70.3059 61.6243C70.1326 61.7737 69.917 61.8656 69.6891 61.8875C69.4612 61.9093 69.2321 61.8599 69.0334 61.7461C68.8348 61.6324 68.6764 61.4598 68.5801 61.2523C68.4838 61.0447 68.4544 60.8125 68.4958 60.5875C68.5373 60.3625 68.6476 60.156 68.8116 59.9963C68.9755 59.8366 69.1851 59.7318 69.4113 59.6961C69.6619 59.6319 69.9278 59.668 70.1523 59.7966C70.3768 59.9252 70.5423 60.1362 70.6135 60.3847Z" fill="#DB614D"/>
<path d="M76.793 53.8511C76.7516 53.8658 76.7063 53.8658 76.6648 53.8511C76.0795 53.5415 75.4012 53.456 74.7573 53.6109C74.7273 53.6193 74.6959 53.6216 74.665 53.6177C74.6341 53.6137 74.6043 53.6036 74.5774 53.5879C74.5505 53.5722 74.527 53.5513 74.5083 53.5264C74.4897 53.5014 74.4762 53.473 74.4688 53.4428C74.454 53.3823 74.4633 53.3184 74.4947 53.2647C74.5261 53.2109 74.5771 53.1714 74.6371 53.1545C75.4109 52.972 76.225 53.0833 76.9213 53.4668C76.972 53.501 77.0072 53.5538 77.0192 53.6137C77.0312 53.6737 77.0191 53.736 76.9854 53.7871C76.9606 53.8121 76.9303 53.8309 76.8969 53.842C76.8635 53.8531 76.8279 53.8563 76.793 53.8511Z" fill="#0E3944"/>
<path d="M68.1687 55.7808C68.1294 55.7917 68.0878 55.7917 68.0485 55.7808C68.022 55.7652 67.999 55.7444 67.9806 55.7198C67.9623 55.6952 67.949 55.6672 67.9415 55.6374C67.9341 55.6076 67.9326 55.5766 67.9372 55.5463C67.9418 55.5159 67.9524 55.4868 67.9683 55.4606C68.4292 54.8134 69.1202 54.3666 69.8999 54.2115C69.9605 54.1998 70.0232 54.2126 70.0743 54.2472C70.1254 54.2817 70.1607 54.3351 70.1724 54.3956C70.1841 54.4562 70.1712 54.5188 70.1366 54.5699C70.1021 54.621 70.0486 54.6562 69.988 54.6679C69.3477 54.8107 68.7794 55.1769 68.3851 55.7008C68.3591 55.7318 68.3255 55.7555 68.2875 55.7695C68.2496 55.7836 68.2086 55.7875 68.1687 55.7808Z" fill="#0E3944"/>
<path d="M76.9927 56.3652C77.1209 56.9337 76.9927 57.4461 76.648 57.5182C76.3034 57.5902 75.9748 57.1899 75.8466 56.6214C75.7184 56.0529 75.8466 55.5325 76.1912 55.4604C76.5358 55.3883 76.8644 55.7967 76.9927 56.3652Z" fill="#1A4850"/>
<path d="M70.6294 57.7504C70.7576 58.3189 70.6294 58.8314 70.2848 58.9034C69.9401 58.9755 69.6115 58.5671 69.4833 58.0067C69.3551 57.4462 69.4833 56.9177 69.8279 56.8457C70.1726 56.7736 70.5332 57.1659 70.6294 57.7504Z" fill="#1A4850"/>
<path d="M72.6895 63.1068C72.6895 63.1068 75.6308 62.8746 76.9452 61.7537C76.9452 61.7537 76.5926 64.0516 74.9897 64.2118C74.5402 64.2719 74.0829 64.1993 73.6742 64.0029C73.2654 63.8066 72.9231 63.4951 72.6895 63.1068Z" fill="#1A4850"/>
<path d="M75.39 56.4212C75.39 56.4212 75.4942 54.932 76.0633 54.908C76.6323 54.8839 77.3216 55.9889 77.3216 55.9889L78.0429 55.3804L77.2414 55.6686C77.2414 55.6686 76.5361 54.5156 75.9911 54.6357C75.2298 54.8039 75.39 56.4212 75.39 56.4212Z" fill="#1A4850"/>
<path d="M70.9821 57.5901C70.9821 57.5901 70.2528 56.285 69.7238 56.5092C69.1949 56.7334 69.0426 58.0225 69.0426 58.0225L68.1289 57.7502L68.9304 57.6782C68.9304 57.6782 69.0746 56.333 69.6196 56.2049C70.4371 56.0528 70.9821 57.5901 70.9821 57.5901Z" fill="#1A4850"/>
<path d="M74.172 60.4568L73.9315 60.0164C74.0636 59.9692 74.1744 59.8761 74.2435 59.7541C74.3127 59.6321 74.3356 59.4893 74.3082 59.3518C74.2895 59.237 74.2391 59.1297 74.1626 59.042C74.0861 58.9543 73.9867 58.8897 73.8754 58.8554C73.7792 58.8554 73.6991 58.9275 73.643 59.0876L73.1621 58.9114C73.2012 58.7457 73.2972 58.599 73.4334 58.4966C73.5695 58.3942 73.7373 58.3427 73.9075 58.351C74.1307 58.3914 74.3363 58.4989 74.4967 58.6591C74.6571 58.8194 74.7647 59.0247 74.8051 59.2477C74.8548 59.4913 74.819 59.7445 74.7036 59.9647C74.5883 60.1849 74.4005 60.3587 74.172 60.4568Z" fill="#DB614D"/>
<path d="M66.9429 61.2333C66.9429 61.2333 65.5323 56.0449 66.3658 52.3698C66.3658 52.3698 70.3732 46.8291 78.0432 49.5674C79.6216 52.3125 80.7703 55.2827 81.4494 58.3749C81.4494 58.3749 81.7379 56.5253 80.9685 52.4178C80.1991 48.3103 76.5605 45.7642 71.5593 46.5809C66.5582 47.3976 61.2044 52.3778 66.9429 61.2333Z" fill="#0E3944"/>
<path d="M75.0055 48.4144C75.0055 48.4144 75.3101 49.7755 73.9877 53.2185C73.8534 53.0817 73.6931 52.973 73.5163 52.8988C73.3394 52.8247 73.1496 52.7865 72.9578 52.7865C72.766 52.7865 72.5761 52.8247 72.3993 52.8988C72.2225 52.973 72.0622 53.0817 71.9279 53.2185C70.8139 54.2113 68.5618 53.883 67.7923 54.4195C67.5448 54.6406 67.3458 54.9106 67.2078 55.2124C67.0699 55.5142 66.996 55.8412 66.9909 56.173C66.5893 55.0934 66.5893 53.9057 66.9909 52.8261C66.0885 54.0692 65.6414 55.5845 65.7246 57.1178C65.7246 57.1178 63.6969 56.7895 63.785 53.4427C63.8732 50.0958 68.6499 44.6352 73.9957 45.0195C79.3415 45.4038 80.6158 53.827 80.6158 53.827C80.4345 53.7047 80.2294 53.6222 80.0139 53.5849C79.7983 53.5476 79.5774 53.5565 79.3655 53.6108C79.1955 52.1877 78.749 50.8115 78.0511 49.5593C78.3755 50.6651 78.3755 51.8405 78.0511 52.9462C77.2303 52.5186 76.3048 52.3325 75.3822 52.4098C75.3822 52.4098 76.1436 51.0006 75.0055 48.4144Z" fill="#0E3944"/>
<path d="M58.6476 68.8718C61.2523 66.822 63.28 69.4322 63.7769 73.0353C64.2738 76.6384 59.5612 97.9285 55.9306 97.1438C54.528 96.8396 53.959 91.2668 53.959 91.2668C55.0335 86.3182 55.815 81.3106 56.2993 76.2701C56.724 72.1626 57.2931 69.9447 58.6476 68.8718Z" fill="#FF8B66"/>
<path d="M51.0734 94.1332C47.563 90.7944 41.2795 79.7209 39.6846 74.1162L42.3454 73.0513C42.3454 73.0513 50.3601 84.493 54.0068 87.3835C57.6534 90.2739 58.9438 93.4847 57.3088 96.239C55.6738 98.9933 51.8107 94.8378 51.0734 94.1332Z" fill="#FF8B66"/>
<path d="M40.7747 66.702C40.5983 70.3211 43.5477 71.1778 42.2413 73.9562C42.1356 74.1949 41.9823 74.4096 41.7908 74.5872C41.5992 74.7648 41.3735 74.9015 41.1273 74.9891C40.724 75.1194 40.2919 75.1322 39.8816 75.0258C39.4714 74.9194 39.1 74.6984 38.8111 74.3885C37.3791 73.0187 35.7922 71.8203 34.0824 70.8175C32.768 70.0569 33.5134 69.8487 33.5134 69.8487L33.1367 69.6886C32.199 69.2962 31.4456 69.1521 32.1268 68.7357C32.8081 68.3194 35.6052 69.2482 35.6052 69.2482C32.0788 66.9022 31.117 67.4707 31.7662 66.9743C32.6398 66.2937 35.9979 67.863 36.0941 67.911C34.2347 66.1496 32.8882 65.7492 33.6176 65.509C34.3469 65.2688 38.0577 67.911 39.4041 68.9119L39.893 69.2802C39.845 66.2937 40.7747 66.702 40.7747 66.702Z" fill="#FF8B66"/>
<path d="M39.4045 68.8879L39.8934 69.2562C39.7136 69.6384 39.6361 70.0606 39.6684 70.4816C39.7007 70.9026 39.8417 71.308 40.0777 71.6583C39.6522 71.3534 39.3503 70.9062 39.2268 70.3978C39.1033 69.8895 39.1663 69.3538 39.4045 68.8879Z" fill="#EF6E4B"/>
<path d="M36.3105 70.9616C35.9979 70.7935 34.2187 69.7927 33.5134 69.8487L33.1367 69.6886C33.6096 69.0641 35.9579 70.7054 36.3105 70.9616Z" fill="#EF6E4B"/>
<path d="M50.3045 124.687C50.3045 124.828 50.2627 124.966 50.1843 125.083C50.1059 125.2 49.9945 125.292 49.8642 125.346C49.7339 125.4 49.5904 125.414 49.4521 125.386C49.3137 125.359 49.1866 125.291 49.0869 125.191C48.9871 125.092 48.9192 124.965 48.8916 124.826C48.8641 124.688 48.8782 124.545 48.9322 124.415C48.9862 124.284 49.0776 124.173 49.1949 124.095C49.3122 124.016 49.4502 123.975 49.5912 123.975C49.6852 123.974 49.7784 123.991 49.8655 124.027C49.9525 124.062 50.0316 124.115 50.098 124.181C50.1645 124.247 50.217 124.326 50.2524 124.413C50.2879 124.5 50.3056 124.593 50.3045 124.687Z" fill="#6097B2"/>
<path d="M63.0077 129.58C63.0077 129.72 62.9658 129.858 62.8875 129.975C62.8091 130.093 62.6977 130.184 62.5673 130.238C62.437 130.292 62.2936 130.306 62.1552 130.278C62.0168 130.251 61.8897 130.183 61.79 130.083C61.6902 129.984 61.6223 129.857 61.5948 129.719C61.5672 129.58 61.5814 129.437 61.6354 129.307C61.6893 129.177 61.7808 129.065 61.8981 128.987C62.0154 128.909 62.1533 128.867 62.2944 128.867C62.4835 128.867 62.665 128.942 62.7987 129.076C62.9325 129.209 63.0077 129.391 63.0077 129.58Z" fill="#6097B2"/>
<path d="M73.8348 132.214C73.8348 132.355 73.793 132.492 73.7146 132.61C73.6362 132.727 73.5248 132.818 73.3945 132.872C73.2641 132.926 73.1207 132.94 72.9823 132.913C72.844 132.885 72.7169 132.817 72.6171 132.717C72.5174 132.618 72.4494 132.491 72.4219 132.353C72.3944 132.214 72.4085 132.071 72.4625 131.941C72.5165 131.811 72.6079 131.699 72.7252 131.621C72.8425 131.543 72.9804 131.501 73.1215 131.501C73.3107 131.501 73.4921 131.576 73.6259 131.71C73.7597 131.843 73.8348 132.025 73.8348 132.214Z" fill="#6097B2"/>
<path d="M57.1971 115.399C57.1971 115.54 57.1553 115.678 57.0769 115.795C56.9985 115.912 56.8871 116.004 56.7568 116.058C56.6264 116.112 56.483 116.126 56.3447 116.098C56.2063 116.071 56.0792 116.003 55.9794 115.903C55.8797 115.804 55.8117 115.677 55.7842 115.538C55.7567 115.4 55.7708 115.257 55.8248 115.127C55.8788 114.996 55.9702 114.885 56.0875 114.807C56.2048 114.729 56.3427 114.687 56.4838 114.687C56.673 114.687 56.8544 114.762 56.9882 114.895C57.122 115.029 57.1971 115.21 57.1971 115.399Z" fill="#6097B2"/>
<path d="M58.8881 122.87C59.2821 122.87 59.6014 122.551 59.6014 122.157C59.6014 121.764 59.2821 121.445 58.8881 121.445C58.4942 121.445 58.1748 121.764 58.1748 122.157C58.1748 122.551 58.4942 122.87 58.8881 122.87Z" fill="#6097B2"/>
<path d="M70.8622 126.009C70.8622 126.149 70.8203 126.287 70.742 126.404C70.6636 126.522 70.5522 126.613 70.4218 126.667C70.2915 126.721 70.1481 126.735 70.0097 126.707C69.8713 126.68 69.7442 126.612 69.6445 126.512C69.5447 126.413 69.4768 126.286 69.4493 126.148C69.4217 126.009 69.4359 125.866 69.4898 125.736C69.5438 125.606 69.6353 125.494 69.7526 125.416C69.8699 125.338 70.0078 125.296 70.1489 125.296C70.338 125.296 70.5195 125.371 70.6532 125.505C70.787 125.638 70.8622 125.82 70.8622 126.009Z" fill="#6097B2"/>
<path d="M72.409 114.342C72.409 114.483 72.3672 114.621 72.2888 114.738C72.2104 114.856 72.099 114.947 71.9687 115.001C71.8384 115.055 71.6949 115.069 71.5566 115.041C71.4182 115.014 71.2911 114.946 71.1913 114.846C71.0916 114.747 71.0237 114.62 70.9961 114.482C70.9686 114.343 70.9827 114.2 71.0367 114.07C71.0907 113.94 71.1821 113.828 71.2994 113.75C71.4167 113.672 71.5546 113.63 71.6957 113.63C71.8849 113.63 72.0663 113.705 72.2001 113.839C72.3339 113.972 72.409 114.153 72.409 114.342Z" fill="#6097B2"/>
<path d="M64.3139 112.629C64.7078 112.629 65.0272 112.31 65.0272 111.916C65.0272 111.523 64.7078 111.204 64.3139 111.204C63.9199 111.204 63.6006 111.523 63.6006 111.916C63.6006 112.31 63.9199 112.629 64.3139 112.629Z" fill="#6097B2"/>
<path d="M43.9962 138.563C43.9899 138.702 43.9428 138.837 43.8607 138.95C43.7786 139.063 43.6652 139.149 43.5344 139.198C43.4036 139.247 43.2613 139.257 43.1251 139.226C42.9889 139.195 42.8649 139.124 42.7683 139.024C42.6717 138.923 42.6069 138.796 42.5819 138.659C42.5568 138.521 42.5727 138.38 42.6275 138.251C42.6823 138.123 42.7736 138.014 42.8901 137.937C43.0066 137.86 43.1432 137.819 43.2829 137.818C43.3793 137.818 43.4748 137.838 43.5635 137.876C43.6522 137.913 43.7323 137.969 43.799 138.038C43.8656 138.108 43.9175 138.19 43.9514 138.28C43.9853 138.371 44.0005 138.467 43.9962 138.563Z" fill="#6097B2"/>
<path d="M33.8504 135.537C33.8504 135.678 33.8086 135.815 33.7302 135.932C33.6518 136.05 33.5404 136.141 33.4101 136.195C33.2798 136.249 33.1363 136.263 32.998 136.236C32.8596 136.208 32.7325 136.14 32.6328 136.04C32.533 135.941 32.4651 135.814 32.4375 135.676C32.41 135.537 32.4241 135.394 32.4781 135.264C32.5321 135.134 32.6235 135.022 32.7408 134.944C32.8581 134.866 32.9961 134.824 33.1371 134.824C33.2308 134.824 33.3236 134.842 33.4101 134.878C33.4966 134.914 33.5753 134.967 33.6415 135.033C33.7078 135.099 33.7603 135.177 33.7961 135.264C33.832 135.35 33.8504 135.443 33.8504 135.537Z" fill="#6097B2"/>
<path d="M27.799 129.972C27.7325 130.07 27.6429 130.151 27.5382 130.206C27.4334 130.262 27.3166 130.292 27.1979 130.292C27.0087 130.292 26.8273 130.217 26.6935 130.083C26.5597 129.95 26.4846 129.769 26.4846 129.58C26.4821 129.496 26.5014 129.413 26.5407 129.339C26.9851 129.497 27.4078 129.709 27.799 129.972Z" fill="#6097B2"/>
<path d="M46.9223 148.556C47.3162 148.556 47.6356 148.237 47.6356 147.843C47.6356 147.449 47.3162 147.13 46.9223 147.13C46.5283 147.13 46.209 147.449 46.209 147.843C46.209 148.237 46.5283 148.556 46.9223 148.556Z" fill="#6097B2"/>
<path d="M29.4178 157.932C29.4178 158.073 29.376 158.21 29.2976 158.328C29.2192 158.445 29.1078 158.536 28.9775 158.59C28.8471 158.644 28.7037 158.658 28.5654 158.631C28.427 158.603 28.2999 158.535 28.2001 158.436C28.1004 158.336 28.0324 158.209 28.0049 158.071C27.9774 157.932 27.9915 157.789 28.0455 157.659C28.0995 157.529 28.1909 157.417 28.3082 157.339C28.4255 157.261 28.5634 157.219 28.7045 157.219C28.8937 157.219 29.0751 157.294 29.2089 157.428C29.3427 157.561 29.4178 157.743 29.4178 157.932Z" fill="#6097B2"/>
<path d="M36.1508 152.527C36.5447 152.527 36.8641 152.208 36.8641 151.814C36.8641 151.421 36.5447 151.102 36.1508 151.102C35.7569 151.102 35.4375 151.421 35.4375 151.814C35.4375 152.208 35.7569 152.527 36.1508 152.527Z" fill="#6097B2"/>
<path d="M25.0658 147.122C25.4598 147.122 25.7792 146.803 25.7792 146.41C25.7792 146.016 25.4598 145.697 25.0658 145.697C24.6719 145.697 24.3525 146.016 24.3525 146.41C24.3525 146.803 24.6719 147.122 25.0658 147.122Z" fill="#6097B2"/>
<path d="M34.7235 167.708C34.7235 167.849 34.6817 167.987 34.6033 168.104C34.5249 168.221 34.4135 168.312 34.2832 168.366C34.1528 168.42 34.0094 168.434 33.871 168.407C33.7327 168.379 33.6056 168.312 33.5058 168.212C33.406 168.112 33.3381 167.985 33.3106 167.847C33.2831 167.709 33.2972 167.565 33.3512 167.435C33.4052 167.305 33.4966 167.194 33.6139 167.115C33.7312 167.037 33.8691 166.995 34.0102 166.995C34.1994 166.995 34.3808 167.07 34.5146 167.204C34.6483 167.338 34.7235 167.519 34.7235 167.708Z" fill="#6097B2"/>
<path d="M41.5038 130.292C41.5038 130.433 41.4619 130.571 41.3835 130.688C41.3052 130.805 41.1938 130.897 41.0634 130.951C40.9331 131.004 40.7897 131.019 40.6513 130.991C40.5129 130.964 40.3858 130.896 40.2861 130.796C40.1863 130.696 40.1184 130.569 40.0909 130.431C40.0633 130.293 40.0775 130.15 40.1314 130.019C40.1854 129.889 40.2769 129.778 40.3942 129.7C40.5115 129.621 40.6494 129.58 40.7905 129.58C40.9796 129.58 41.1611 129.655 41.2948 129.788C41.4286 129.922 41.5038 130.103 41.5038 130.292Z" fill="#6097B2"/>
<path d="M48.3485 118.306C48.3485 118.447 48.3067 118.585 48.2283 118.702C48.1499 118.819 48.0385 118.91 47.9082 118.964C47.7778 119.018 47.6344 119.032 47.496 119.005C47.3577 118.977 47.2306 118.909 47.1308 118.81C47.031 118.71 46.9631 118.583 46.9356 118.445C46.9081 118.307 46.9222 118.163 46.9762 118.033C47.0302 117.903 47.1216 117.792 47.2389 117.713C47.3562 117.635 47.4941 117.593 47.6352 117.593C47.8244 117.593 48.0058 117.668 48.1396 117.802C48.2733 117.936 48.3485 118.117 48.3485 118.306Z" fill="#6097B2"/>
<path d="M56.1063 108.337C56.1063 108.478 56.0645 108.616 55.9861 108.733C55.9077 108.85 55.7963 108.942 55.666 108.996C55.5356 109.05 55.3922 109.064 55.2538 109.036C55.1155 109.009 54.9884 108.941 54.8886 108.841C54.7889 108.742 54.7209 108.615 54.6934 108.476C54.6659 108.338 54.68 108.195 54.734 108.065C54.788 107.934 54.8794 107.823 54.9967 107.745C55.114 107.667 55.2519 107.625 55.393 107.625C55.5822 107.625 55.7636 107.7 55.8974 107.833C56.0311 107.967 56.1063 108.148 56.1063 108.337Z" fill="#6097B2"/>
<path d="M40.3982 122.862C40.3998 123.003 40.3594 123.142 40.2819 123.26C40.2045 123.378 40.0937 123.471 39.9635 123.526C39.8333 123.581 39.6896 123.596 39.5508 123.57C39.4119 123.543 39.284 123.476 39.1835 123.377C39.0829 123.277 39.0142 123.15 38.986 123.012C38.9578 122.873 38.9715 122.73 39.0252 122.599C39.0789 122.468 39.1704 122.357 39.2878 122.278C39.4053 122.199 39.5435 122.157 39.6849 122.157C39.8727 122.157 40.053 122.231 40.1865 122.363C40.32 122.495 40.3961 122.674 40.3982 122.862Z" fill="#6097B2"/>
<path d="M49.0614 111.204C49.0614 111.345 49.0195 111.483 48.9412 111.6C48.8628 111.717 48.7514 111.808 48.621 111.862C48.4907 111.916 48.3473 111.93 48.2089 111.903C48.0705 111.875 47.9434 111.807 47.8437 111.708C47.7439 111.608 47.676 111.481 47.6485 111.343C47.6209 111.205 47.6351 111.061 47.6891 110.931C47.7431 110.801 47.8345 110.69 47.9518 110.611C48.0691 110.533 48.207 110.491 48.3481 110.491C48.4417 110.491 48.5345 110.51 48.621 110.545C48.7076 110.581 48.7862 110.634 48.8525 110.7C48.9187 110.766 48.9712 110.845 49.0071 110.931C49.0429 111.018 49.0614 111.11 49.0614 111.204Z" fill="#6097B2"/>
<path d="M35.4374 143.247C35.4374 143.388 35.3955 143.526 35.3171 143.643C35.2388 143.76 35.1274 143.851 34.997 143.905C34.8667 143.959 34.7233 143.973 34.5849 143.946C34.4465 143.918 34.3194 143.851 34.2197 143.751C34.1199 143.651 34.052 143.524 34.0244 143.386C33.9969 143.248 34.011 143.105 34.065 142.974C34.119 142.844 34.2105 142.733 34.3278 142.655C34.4451 142.576 34.583 142.534 34.724 142.534C34.9132 142.534 35.0947 142.61 35.2284 142.743C35.3622 142.877 35.4374 143.058 35.4374 143.247Z" fill="#6097B2"/>
<path d="M26.452 136.962C26.452 137.103 26.4099 137.241 26.3312 137.358C26.2525 137.476 26.1406 137.567 26.0098 137.621C25.879 137.674 25.7351 137.688 25.5966 137.66C25.458 137.632 25.3309 137.563 25.2315 137.463C25.132 137.362 25.0647 137.234 25.0381 137.096C25.0115 136.957 25.0268 136.813 25.082 136.683C25.1372 136.553 25.2299 136.443 25.3483 136.365C25.4666 136.288 25.6053 136.247 25.7467 136.249C25.84 136.249 25.9324 136.268 26.0185 136.303C26.1046 136.339 26.1827 136.392 26.2483 136.458C26.3139 136.525 26.3657 136.603 26.4006 136.69C26.4356 136.776 26.4531 136.868 26.452 136.962Z" fill="#6097B2"/>
<path d="M51.7231 135.537C52.117 135.537 52.4364 135.217 52.4364 134.824C52.4364 134.43 52.117 134.111 51.7231 134.111C51.3291 134.111 51.0098 134.43 51.0098 134.824C51.0098 135.217 51.3291 135.537 51.7231 135.537Z" fill="#6097B2"/>
<path d="M66.4535 139.276C66.8475 139.276 67.1668 138.957 67.1668 138.563C67.1668 138.17 66.8475 137.851 66.4535 137.851C66.0596 137.851 65.7402 138.17 65.7402 138.563C65.7402 138.957 66.0596 139.276 66.4535 139.276Z" fill="#6097B2"/>
<path d="M66.454 118.306C66.454 118.447 66.4121 118.585 66.3337 118.702C66.2554 118.819 66.144 118.91 66.0136 118.964C65.8833 119.018 65.7399 119.032 65.6015 119.005C65.4631 118.977 65.336 118.909 65.2363 118.81C65.1365 118.71 65.0686 118.583 65.0411 118.445C65.0135 118.307 65.0277 118.163 65.0816 118.033C65.1356 117.903 65.2271 117.792 65.3444 117.713C65.4617 117.635 65.5996 117.593 65.7406 117.593C65.9298 117.593 66.1113 117.668 66.245 117.802C66.3788 117.936 66.454 118.117 66.454 118.306Z" fill="#6097B2"/>
<path d="M75.0135 119.803C75.0135 119.944 74.9717 120.082 74.8933 120.199C74.8149 120.316 74.7035 120.408 74.5732 120.462C74.4429 120.515 74.2994 120.53 74.1611 120.502C74.0227 120.475 73.8956 120.407 73.7958 120.307C73.6961 120.207 73.6281 120.08 73.6006 119.942C73.5731 119.804 73.5872 119.661 73.6412 119.53C73.6952 119.4 73.7866 119.289 73.9039 119.211C74.0212 119.132 74.1591 119.091 74.3002 119.091C74.4894 119.091 74.6708 119.166 74.8046 119.299C74.9384 119.433 75.0135 119.614 75.0135 119.803Z" fill="#6097B2"/>
<path d="M57.91 143.96C57.91 144.101 57.8682 144.238 57.7898 144.356C57.7114 144.473 57.6 144.564 57.4697 144.618C57.3393 144.672 57.1959 144.686 57.0575 144.659C56.9192 144.631 56.7921 144.563 56.6923 144.464C56.5926 144.364 56.5246 144.237 56.4971 144.099C56.4696 143.96 56.4837 143.817 56.5377 143.687C56.5917 143.557 56.6831 143.445 56.8004 143.367C56.9177 143.289 57.0556 143.247 57.1967 143.247C57.3859 143.247 57.5673 143.322 57.7011 143.456C57.8349 143.589 57.91 143.771 57.91 143.96Z" fill="#6097B2"/>
<path d="M51.017 157.331C51.411 157.331 51.7303 157.012 51.7303 156.618C51.7303 156.225 51.411 155.906 51.017 155.906C50.6231 155.906 50.3037 156.225 50.3037 156.618C50.3037 157.012 50.6231 157.331 51.017 157.331Z" fill="#6097B2"/>
<path d="M40.0776 159.357C40.4715 159.357 40.7909 159.038 40.7909 158.644C40.7909 158.251 40.4715 157.932 40.0776 157.932C39.6836 157.932 39.3643 158.251 39.3643 158.644C39.3643 159.038 39.6836 159.357 40.0776 159.357Z" fill="#6097B2"/>
<path d="M70.1489 148.556C70.5428 148.556 70.8622 148.237 70.8622 147.843C70.8622 147.449 70.5428 147.13 70.1489 147.13C69.7549 147.13 69.4355 147.449 69.4355 147.843C69.4355 148.237 69.7549 148.556 70.1489 148.556Z" fill="#6097B2"/>
<path d="M61.0194 153.239C61.0194 153.38 60.9776 153.518 60.8992 153.635C60.8208 153.753 60.7094 153.844 60.579 153.898C60.4487 153.952 60.3053 153.966 60.1669 153.938C60.0286 153.911 59.9015 153.843 59.8017 153.743C59.7019 153.644 59.634 153.517 59.6065 153.378C59.579 153.24 59.5931 153.097 59.6471 152.967C59.7011 152.837 59.7925 152.725 59.9098 152.647C60.0271 152.569 60.165 152.527 60.3061 152.527C60.4953 152.527 60.6767 152.602 60.8105 152.736C60.9442 152.869 61.0194 153.05 61.0194 153.239Z" fill="#6097B2"/>
<path d="M46.2088 169.133C46.2088 169.274 46.167 169.412 46.0886 169.529C46.0102 169.646 45.8988 169.737 45.7685 169.791C45.6382 169.845 45.4947 169.859 45.3564 169.832C45.218 169.804 45.0909 169.737 44.9912 169.637C44.8914 169.537 44.8235 169.41 44.7959 169.272C44.7684 169.134 44.7825 168.991 44.8365 168.86C44.8905 168.73 44.9819 168.619 45.0992 168.541C45.2165 168.462 45.3545 168.42 45.4955 168.42C45.5895 168.419 45.6827 168.437 45.7698 168.473C45.8568 168.508 45.9359 168.56 46.0023 168.627C46.0688 168.693 46.1213 168.772 46.1567 168.859C46.1922 168.946 46.2099 169.039 46.2088 169.133Z" fill="#6097B2"/>
<path d="M56.4838 166.139C56.8778 166.139 57.1971 165.82 57.1971 165.426C57.1971 165.032 56.8778 164.713 56.4838 164.713C56.0899 164.713 55.7705 165.032 55.7705 165.426C55.7705 165.82 56.0899 166.139 56.4838 166.139Z" fill="#6097B2"/>
<path d="M67.0707 161.943C67.4647 161.943 67.784 161.624 67.784 161.23C67.784 160.837 67.4647 160.518 67.0707 160.518C66.6768 160.518 66.3574 160.837 66.3574 161.23C66.3574 161.624 66.6768 161.943 67.0707 161.943Z" fill="#6097B2"/>
<path d="M63.0077 173.473C63.0077 173.614 62.9658 173.752 62.8875 173.869C62.8091 173.986 62.6977 174.077 62.5673 174.131C62.437 174.185 62.2936 174.199 62.1552 174.172C62.0168 174.144 61.8897 174.076 61.79 173.977C61.6902 173.877 61.6223 173.75 61.5948 173.612C61.5672 173.474 61.5814 173.33 61.6354 173.2C61.6893 173.07 61.7808 172.959 61.8981 172.88C62.0154 172.802 62.1533 172.76 62.2944 172.76C62.4835 172.76 62.665 172.835 62.7987 172.969C62.9325 173.103 63.0077 173.284 63.0077 173.473Z" fill="#6097B2"/>
<path d="M62.2299 210.945H50.4965C49.7351 208.775 51.1456 206.589 50.9052 204.667C50.4965 201.464 52.3879 203.218 52.3879 203.218C52.7165 199.735 57.6215 199.078 57.5734 200.632C57.4933 202.914 57.9341 204.331 58.5913 205.276C59.9057 207.181 62.0696 207.165 62.4383 208.526C62.4773 208.652 62.5068 208.781 62.5265 208.911C62.9272 210.616 62.2299 210.945 62.2299 210.945Z" fill="#164353"/>
<path d="M62.5585 208.911C60.1541 209.471 54.5439 208.743 54.3275 207.309C54.1111 205.876 57.1246 205.316 58.6233 205.252C59.9377 207.157 62.1017 207.141 62.4704 208.502C62.5106 208.636 62.5401 208.773 62.5585 208.911Z" fill="#205260"/>
<path d="M14.134 120.412C12.8918 119.283 10.8641 121.148 10.8641 121.148C10.8641 121.148 11.954 122.75 11.2488 123.414C10.5435 124.079 9.73398 122.614 8.34745 123.23C8.23503 123.283 8.12536 123.342 8.01885 123.406C6.84915 124.272 5.80061 125.29 4.90115 126.433L4.3802 127.009C3.29822 128.13 0.565219 128.787 0.0522812 125.808C-0.460657 122.83 2.88145 119.403 6.53614 116.2C10.1908 112.997 12.5632 114.903 12.5632 114.903C12.9751 115.567 13.2478 116.308 13.3646 117.081C13.3646 117.882 14.102 118.322 14.5187 119.115C14.6268 119.34 14.6473 119.597 14.5763 119.837C14.5052 120.077 14.3476 120.281 14.134 120.412Z" fill="#164353"/>
<path d="M8.01845 123.406C6.84875 124.272 5.80022 125.289 4.90075 126.433C3.53025 126.761 2.304 126.665 2.11165 125.376C1.63879 122.269 7.85015 118.314 7.35324 120.5C7.26743 121.004 7.28201 121.52 7.39616 122.019C7.5103 122.518 7.72177 122.989 8.01845 123.406Z" fill="#205260"/>
<path d="M224.655 205.876C223.968 205.428 223.414 204.803 223.052 204.067C222.812 202.375 222.812 200.658 223.052 198.967C223.461 196.348 222.323 194.219 218.62 193.41C214.917 192.601 212.881 194.371 213.715 201.601C213.162 204.611 213.05 208.006 214.3 210.929H225.384C225.384 210.929 227.155 207.206 224.655 205.876Z" fill="#CFD8DC"/>
<path d="M234.377 166.907C234.152 172.027 232.76 177.028 230.305 181.528C226.154 189.062 221.024 199.407 221.024 199.407C221.024 199.407 217.61 202.738 215.414 197.221C215.414 197.221 216.945 178.005 220.463 170.975C223.982 163.945 234.377 166.907 234.377 166.907Z" fill="#FF8B66"/>
<path d="M287.546 143.423C287.546 143.423 294.142 171.167 298.35 178.485C298.35 178.485 297.38 181.552 292.835 182.489C292.835 182.489 278.465 161.391 277.543 152.511C276.622 143.632 287.546 143.423 287.546 143.423Z" fill="#FF8B66"/>
<path d="M290.735 149.925C288.98 154.152 275.411 154.377 275.411 154.377L274.377 152.855L274.105 152.455L271.981 149.332C271.981 149.332 249.5 127.306 245.124 129.155C244.993 129.213 244.87 129.286 244.755 129.371C241.742 131.517 241.461 143.279 237.911 163C237.51 164.911 236.953 166.785 236.244 168.605C236.172 168.765 236.116 168.917 236.051 169.069C235.731 169.87 235.498 170.438 235.498 170.438C221.777 175.987 217.249 165.018 217.249 165.018C217.249 165.018 217.409 164.697 217.65 164.217C217.698 164.105 217.762 163.977 217.818 163.841C218.539 162.239 219.685 159.517 219.669 158.06C219.669 156.458 219.669 154.937 219.669 153.464C219.669 153.336 219.669 153.208 219.669 153.079C219.669 148.339 219.669 144.216 219.669 140.629V140.221C219.669 138.619 219.669 137.202 219.734 135.841V135.416C219.854 129.171 220.054 125.008 220.271 122.229C220.271 122.101 220.271 121.973 220.271 121.853C220.647 117.185 221.072 116.721 221.072 116.721L218.323 97.6323H248.322C248.322 97.6323 252.826 102.14 258.669 108.089C258.797 108.209 258.917 108.329 259.029 108.458C261.153 110.611 263.446 112.949 265.738 115.327L266.002 115.6L268.711 118.386L269.04 118.73C272.045 121.845 274.963 124.92 277.463 127.602C277.551 127.69 277.631 127.778 277.712 127.874C280.174 130.404 282.483 133.078 284.628 135.881C286.797 139.435 288.558 143.222 289.878 147.17C289.934 147.307 289.974 147.427 290.022 147.555C290.471 149.028 290.735 149.925 290.735 149.925Z" fill="#8B383E"/>
<path d="M225.537 119.611C224.166 121.126 222.275 122.072 220.239 122.261C220.239 122.133 220.239 122.005 220.239 121.885C222.15 121.707 223.926 120.822 225.216 119.403C226.479 117.767 227.093 115.722 226.939 113.662H227.308C227.478 115.796 226.847 117.917 225.537 119.611Z" fill="#662C33"/>
<path d="M258.998 108.489H258.653C255.319 108.489 251.833 104.854 251.656 104.67L251.929 104.406C251.969 104.462 255.439 108.089 258.637 108.113C258.765 108.241 258.877 108.361 258.998 108.489Z" fill="#662C33"/>
<path d="M236.236 168.589C236.163 168.749 236.107 168.901 236.043 169.053C234.088 169.791 232.018 170.179 229.928 170.198C223.997 170.198 219.894 166.771 217.642 164.177C217.69 164.065 217.754 163.937 217.81 163.801C220.695 167.179 226.818 172.16 236.236 168.589Z" fill="#662C33"/>
<path d="M244.283 122.277C244.805 124.533 245.073 126.84 245.084 129.155C244.953 129.213 244.83 129.286 244.715 129.371C244.715 118.162 238.223 109.474 238.151 109.354L238.448 109.13C241.111 112.993 243.045 117.311 244.154 121.869C244.53 121.631 244.854 121.321 245.109 120.957C245.363 120.592 245.543 120.181 245.637 119.747C246.575 115.824 242.327 109.41 242.287 109.338L242.591 109.13C242.776 109.402 246.967 115.736 246.006 119.819C245.902 120.325 245.696 120.804 245.399 121.227C245.103 121.65 244.723 122.007 244.283 122.277Z" fill="#662C33"/>
<path d="M277.68 127.906C276.574 129.099 275.54 130.124 275.444 130.212L275.244 130.412L275.147 130.148C273.697 126.345 264.36 118.138 264.264 118.034L264.151 117.93L265.706 115.359L265.971 115.632L264.672 117.793C265.944 118.3 267.314 118.513 268.68 118.418L269.008 118.762C268.685 118.814 268.358 118.841 268.03 118.842C267.058 118.818 266.094 118.65 265.169 118.346C267.285 120.26 273.873 126.353 275.388 129.756C275.973 129.179 276.71 128.41 277.432 127.634C277.52 127.722 277.6 127.81 277.68 127.906Z" fill="#662C33"/>
<path d="M226.45 153.36H226.306C225.068 153.609 223.81 153.738 222.547 153.744C221.563 153.76 220.582 153.642 219.63 153.392C219.63 153.264 219.63 153.136 219.63 153.007C222.074 153.712 225.344 153.168 226.082 153.007L225.457 137.602C225.028 138.734 224.202 139.67 223.132 140.237C222.492 140.55 221.786 140.706 221.073 140.693C220.593 140.692 220.114 140.638 219.646 140.533V140.221C220.746 140.535 221.923 140.447 222.964 139.972C223.55 139.638 224.064 139.192 224.476 138.659C224.889 138.126 225.192 137.516 225.368 136.866C224.126 137.05 221.634 136.425 219.758 135.841V135.417C221.81 136.033 224.567 136.754 225.593 136.409L225.825 136.321L226.45 153.36Z" fill="#662C33"/>
<path d="M289.991 147.603C288.225 149.332 286.136 150.697 283.842 151.619C281.548 152.541 279.094 153.002 276.622 152.975C275.872 152.974 275.123 152.934 274.378 152.855L274.105 152.455C276.956 152.855 279.86 152.59 282.591 151.682C285.322 150.773 287.805 149.246 289.846 147.219C289.902 147.355 289.942 147.475 289.991 147.603Z" fill="#662C33"/>
<path d="M253.828 16.4992C253.828 16.4992 253.027 14.6016 249.524 14.6016C246.856 14.6016 245.814 16.1148 245.814 16.1148C244.211 20.8068 242.48 38.7581 241.862 39.3906C241.55 39.7189 221.649 53.1143 221.649 53.1143C232.429 53.2825 239.185 66.5577 239.185 66.5577C239.538 62.186 251.736 44.8673 251.865 43.338C252.113 40.4315 257.275 27.4205 253.828 16.4992Z" fill="#CE364C"/>
<path d="M219.277 110.355C219.277 110.355 219.172 114.102 220.383 114.358C227.873 116.251 235.785 115.548 242.824 112.365C254.181 107.2 256.16 103.381 252.826 100.539C249.492 97.6963 219.277 110.355 219.277 110.355Z" fill="#CE364C"/>
<path d="M214.725 55.6686C214.725 55.6686 204.386 54.4436 198.455 57.0138C198.455 57.0138 196.804 64.34 204.947 80.7379C213.09 97.1359 211.198 107.465 220.407 111.396C228.55 114.847 252.554 104.582 253.267 101.179C255.167 92.62 240.492 77.5913 239.562 68.8798C238.632 60.1684 230.129 47.0373 214.725 55.6686Z" fill="#F24052"/>
<path d="M198.455 57.0138C191.242 59.576 183.107 67.6789 183.091 71.5782C183.075 75.4775 189.871 76.9668 189.871 76.9668L201.004 71.5542C201.004 71.5542 204.209 69.3363 202.166 62.8668C200.122 56.3973 198.455 57.0138 198.455 57.0138Z" fill="#CE364C"/>
<path d="M228.141 64.2278C225.834 64.1966 223.582 63.5198 221.641 62.2741C221.247 62.0419 220.902 61.7343 220.627 61.3688C220.352 61.0033 220.152 60.5872 220.038 60.1443C219.63 57.5741 222.122 56.277 222.234 56.2209L222.571 56.8775C222.483 56.9256 220.447 57.9985 220.768 60.0242C220.975 60.7018 221.434 61.2747 222.05 61.6255C224.18 63.024 226.73 63.6383 229.263 63.363C229.626 63.3441 229.979 63.2435 230.297 63.0688C230.615 62.8941 230.889 62.6498 231.099 62.3542C231.195 62.1484 231.248 61.9254 231.257 61.6985C231.265 61.4715 231.228 61.2453 231.147 61.0331L231.828 60.7448C231.954 61.0573 232.012 61.3927 232 61.7293C231.987 62.0659 231.904 62.3961 231.756 62.6985C231.501 63.1084 231.153 63.4535 230.742 63.7064C230.33 63.9593 229.865 64.1131 229.384 64.1557C228.972 64.2137 228.557 64.2378 228.141 64.2278Z" fill="#CFD8DC"/>
<path d="M218.98 72.0425C217.377 72.0425 214.725 71.3779 214.356 68.7517C214.214 67.6128 214.228 66.46 214.396 65.3248C214.556 63.8835 214.676 62.7386 213.835 61.3694C213.496 60.7381 213.016 60.1932 212.432 59.7767C211.848 59.3602 211.177 59.0833 210.469 58.9673V58.2307C211.299 58.3536 212.089 58.6679 212.776 59.1488C213.463 59.6297 214.029 60.2638 214.428 61.0011C215.406 62.6024 215.229 63.9636 215.093 65.4208C214.93 66.4946 214.914 67.5855 215.045 68.6636C215.454 71.498 219.052 71.3139 219.213 71.3139L219.253 72.0505L218.98 72.0425Z" fill="#CFD8DC"/>
<path d="M221.209 58.7592C221.209 58.7592 226.675 55.036 225.377 51.0166C224.078 46.9972 206.486 47.2694 201.95 52.0815C197.413 56.8936 211.768 60.0883 211.768 60.0883C212.89 57.8464 219.991 57.5982 221.209 58.7592Z" fill="#CE364C"/>
<path d="M211.406 58.1266C208.81 57.2458 207.271 55.3803 207.832 53.2184C208.393 51.0566 219.533 51.0005 221.649 52.73C223.765 54.4595 220.784 61.3053 211.406 58.1266Z" fill="#A02E44"/>
<path d="M210.173 52.0575C210.173 52.0575 212.465 55.9728 211.407 58.1266C211.407 58.1266 219.277 60.841 219.277 56.4452C219.277 56.4452 217.787 53.1464 218.348 51.0166L210.173 52.0575Z" fill="#EF6E4B"/>
<path d="M207.584 48.6386C207.584 48.6386 203.721 42.4574 204.074 36.5404C204.258 33.5858 205.781 32.4329 205.781 32.4329C205.781 32.4329 204.546 30.7274 205.869 28.1172C205.869 28.1172 207.688 30.223 214.076 29.5584C220.239 28.9179 220.856 33.3136 220.856 33.3136C225.264 33.9622 222.291 47.2775 219.213 48.6386H207.584Z" fill="#FFB878"/>
<path d="M205.908 42.9296C205.908 42.9296 203.68 40.7118 203.408 43.306C203.095 46.3005 205.812 47.5095 206.349 46.5567C206.886 45.6039 205.908 42.9296 205.908 42.9296Z" fill="#FF8B66"/>
<path d="M221.466 43.0819C221.466 43.0819 223.694 40.872 223.966 43.4582C224.279 46.4608 221.562 47.6698 221.017 46.717C220.472 45.7642 221.466 43.0819 221.466 43.0819Z" fill="#FF8B66"/>
<path d="M213.45 53.7949C208.521 53.7949 205.74 50.5922 205.74 40.928C205.74 35.9477 208.273 32.9211 213.795 32.9211C219.317 32.9211 221.649 35.9717 221.649 40.928C221.649 51.2968 218.548 53.7949 213.45 53.7949Z" fill="#FF8B66"/>
<path d="M220.015 44.371C219.999 44.6341 219.896 44.8844 219.72 45.0812C219.545 45.278 219.308 45.4098 219.048 45.4552C218.788 45.5007 218.521 45.457 218.289 45.3314C218.057 45.2058 217.874 45.0057 217.771 44.7633C217.786 44.5002 217.889 44.25 218.065 44.0532C218.24 43.8564 218.477 43.7246 218.737 43.6791C218.997 43.6337 219.264 43.6773 219.496 43.8029C219.728 43.9285 219.911 44.1287 220.015 44.371Z" fill="#DB614D"/>
<path d="M209.868 44.6432C209.795 44.899 209.637 45.122 209.419 45.2751C209.201 45.4282 208.938 45.502 208.672 45.4842C208.406 45.4664 208.155 45.358 207.96 45.1773C207.765 44.9965 207.637 44.7543 207.6 44.4911C207.672 44.2353 207.831 44.0122 208.048 43.8591C208.266 43.7061 208.53 43.6323 208.795 43.6501C209.061 43.6679 209.312 43.7762 209.507 43.957C209.703 44.1378 209.83 44.38 209.868 44.6432Z" fill="#DB614D"/>
<path d="M217.842 39.1987C217.774 39.2066 217.706 39.1895 217.65 39.1506C217.062 38.779 216.356 38.6392 215.67 38.7583C215.607 38.7681 215.542 38.7539 215.489 38.7183C215.435 38.6827 215.397 38.6284 215.382 38.5661C215.37 38.5013 215.385 38.4346 215.422 38.3805C215.46 38.3265 215.517 38.2896 215.582 38.2779C216.416 38.1204 217.278 38.2926 217.987 38.7583C218.038 38.7979 218.072 38.8562 218.081 38.9206C218.09 38.985 218.073 39.0503 218.035 39.1026C217.983 39.1552 217.915 39.1891 217.842 39.1987Z" fill="#FFB878"/>
<path d="M208.385 39.2308C208.324 39.219 208.268 39.1882 208.225 39.1427C208.204 39.1177 208.189 39.0888 208.18 39.0578C208.171 39.0267 208.168 38.9942 208.172 38.962C208.175 38.9298 208.185 38.8988 208.202 38.8707C208.218 38.8425 208.239 38.818 208.265 38.7984C208.946 38.3158 209.788 38.1176 210.613 38.2459C210.646 38.2498 210.677 38.2602 210.705 38.2766C210.734 38.293 210.758 38.315 210.778 38.3412C210.797 38.3674 210.811 38.3974 210.819 38.4292C210.826 38.461 210.827 38.494 210.822 38.5262C210.81 38.5893 210.774 38.6454 210.722 38.6828C210.67 38.7201 210.605 38.7357 210.541 38.7263C209.854 38.6353 209.157 38.7945 208.578 39.1747C208.551 39.1969 208.52 39.2133 208.487 39.223C208.454 39.2326 208.419 39.2353 208.385 39.2308Z" fill="#FFB878"/>
<path d="M217.33 41.977C217.33 42.5855 217.057 43.0819 216.713 43.0819C216.368 43.0819 216.104 42.5855 216.104 41.977C216.104 41.3685 216.376 40.8721 216.713 40.8721C217.049 40.8721 217.33 41.3605 217.33 41.977Z" fill="#1A4850"/>
<path d="M210.79 41.977C210.79 42.5855 210.509 43.0819 210.173 43.0819C209.836 43.0819 209.556 42.5855 209.556 41.977C209.556 41.3685 209.828 40.8721 210.173 40.8721C210.517 40.8721 210.79 41.3605 210.79 41.977Z" fill="#1A4850"/>
<path d="M207.247 33.9622C211.393 35.2454 215.747 35.7157 220.071 35.3473C220.071 35.3473 221.674 37.3491 221.481 44.4031C221.481 44.4031 225.898 31.6882 213.018 31.6882C200.138 31.6882 205.909 44.1388 205.909 44.1388C205.909 44.1388 204.851 36.3482 207.247 33.9622Z" fill="#FFB878"/>
<path d="M213.763 45.2677L213.395 44.8913L214.372 43.9225C213.427 42.5934 213.427 39.4948 213.427 39.3586H213.996C213.996 39.3586 213.996 42.7135 214.957 43.7624L215.126 43.9465L213.763 45.2677Z" fill="#DB614D"/>
<path d="M210.493 46.8771C210.493 46.8771 215.342 47.0853 217.795 46.4368C217.86 46.9058 217.822 47.3836 217.684 47.8365C217.545 48.2895 217.309 48.7068 216.993 49.0591C216.676 49.4115 216.286 49.6904 215.85 49.8764C215.414 50.0624 214.942 50.151 214.468 50.1359C210.493 50.3201 210.493 46.8771 210.493 46.8771Z" fill="#1A4850"/>
<path d="M231.227 60.2084C232.157 60.0322 232.069 62.4583 231.227 61.7537C230.385 61.0491 230.305 60.3765 231.227 60.2084Z" fill="#CFD8DC"/>
<path d="M220.063 71.9384C219.919 72.8752 217.659 71.9864 218.596 71.434C219.534 70.8815 220.207 71.0096 220.063 71.9384Z" fill="#CFD8DC"/>
<path d="M210.116 76.9668C210.116 76.9668 208.649 80.738 208.729 82.8678C208.81 84.9976 209.531 84.7174 209.531 84.7174C209.192 84.8682 208.894 85.0982 208.662 85.388C208.431 85.6778 208.272 86.019 208.2 86.3828C207.992 87.6078 211.094 88.5126 211.302 88.5126C211.511 88.5126 213.707 87.7119 213.707 87.7119L214.163 80.746L212.232 79.529L210.116 76.9668Z" fill="#EF6E4B"/>
<path d="M211.287 76.5024C212.594 77.3018 213.837 78.2013 215.006 79.1927C216.039 80.2096 215.446 88.0723 215.006 88.4406C214.565 88.8089 211.143 89.5776 210.493 89.1452C209.844 88.7128 210.75 86.4069 210.75 86.4069C210.75 86.4069 212.457 86.0386 212.216 86.6871C212.069 87.0739 212.069 87.5013 212.216 87.8881L212.914 87.6079C212.722 86.6 212.722 85.5652 212.914 84.5573C213.266 83.2602 210.509 81.891 210.173 79.521C209.836 77.151 211.287 76.5024 211.287 76.5024Z" fill="#FF8B66"/>
<path d="M183.54 72.6749C182.682 68.9758 186.353 67.6707 191.466 68.2952C197.397 69.0318 209.571 70.5771 212.216 76.9906C212.216 76.9906 213.082 79.5207 210.837 80.7378C204.586 84.1727 185.143 79.6168 183.54 72.6749Z" fill="#CE364C"/>
<path d="M202.077 70.225C202.077 70.225 195.017 67.2945 191.498 67.0223C187.98 66.75 196.363 69.7606 202.077 70.225Z" fill="#A02E44"/>
<path d="M255.038 6.68293C254.463 7.621 253.988 8.61659 253.62 9.65345C253.251 11.6391 253.035 12.7281 252.337 13.6569C251.64 14.5856 252.017 16.179 252.017 16.179C252.017 16.179 249.316 17.5562 247.048 15.8507C247.171 15.1757 247.171 14.484 247.048 13.809C246.583 12.9042 245.084 12.4238 244.579 10.6063C244.098 9.22222 243.406 7.92053 242.527 6.74698C242.527 6.74698 242.968 5.79417 243.77 6.37867C244.571 6.96317 245.084 8.42041 245.525 8.56453C245.61 8.59717 245.699 8.6187 245.789 8.62858C245.944 8.65523 246.103 8.64828 246.255 8.60822C246.407 8.56816 246.549 8.49592 246.671 8.39639C246.692 8.38676 246.709 8.36967 246.719 8.34834C247.456 7.49962 247.625 5.0015 247.593 3.88055C247.553 2.32723 247.593 0.181399 248.562 0.541705C249.532 0.902011 248.643 1.76675 249.364 5.19366L249.724 5.2417C249.789 5.48991 250.438 3.15993 250.598 0.982079C250.71 -0.523201 251.696 0.0292699 251.904 0.501672C252.113 0.974073 251.8 2.47135 251.728 3.56027C251.68 4.28089 251.616 5.02552 251.584 5.4739L252.001 5.69809C253.491 3.09588 252.978 2.01496 253.86 1.95891C254.742 1.90286 254.413 4.11274 253.948 4.94545C253.693 5.54145 253.508 6.16472 253.395 6.80303C254.934 5.03352 254.758 4.11274 255.463 4.21683C256.168 4.32092 255.567 6.07441 255.038 6.68293Z" fill="#FF8B66"/>
<path d="M248.41 10.7664C247.897 9.33318 246.046 8.68463 245.813 8.61257C245.968 8.63921 246.127 8.63227 246.28 8.59221C246.432 8.55214 246.573 8.4799 246.695 8.38037C247.188 8.55925 247.616 8.88274 247.922 9.30849C248.228 9.73423 248.398 10.2424 248.41 10.7664Z" fill="#EF6E4B"/>
<path d="M216.224 200.087C216.224 200.087 215.198 197.998 216.12 197.101C217.041 196.204 218.107 197.902 219.67 197.501C221.233 197.101 221.594 196.02 221.994 197.501C222.395 198.983 221.906 203.795 216.224 200.087Z" fill="#CFD8DC"/>
<path d="M222.106 199.999C222.106 199.999 217.906 201.481 215.734 199.999L216.287 201.809C216.287 201.809 220.848 202.297 221.473 201.144L222.106 199.999Z" fill="#ADBEC4"/>
<path d="M222.05 202.249C222.05 202.249 218.211 201.721 216.352 202.674V203.57C216.352 203.57 221.361 202.401 222.98 203.57L222.05 202.249Z" fill="#ADBEC4"/>
<path d="M216.168 205.436C216.455 204.861 216.894 204.376 217.439 204.034C217.983 203.693 218.611 203.507 219.254 203.498C220.651 203.42 222.033 203.828 223.165 204.651C222.019 204.225 220.788 204.074 219.573 204.211C218.357 204.347 217.191 204.767 216.168 205.436Z" fill="#ADBEC4"/>
<path d="M314.98 180.254C310.707 186.052 304.556 190.191 297.572 191.968C296.751 191.374 296.063 190.616 295.55 189.742C295.036 188.868 294.71 187.898 294.591 186.892C294.591 186.892 291.778 184.386 291.385 183.193C290.992 182 293.789 178.389 295.456 178.749C295.91 178.869 296.333 179.083 296.699 179.377C297.065 179.671 297.365 180.038 297.58 180.455C296.202 177.356 297.308 176.275 299.263 176.539C301.219 176.804 299.376 177.3 300.866 178.941C300.967 179.057 301.083 179.16 301.211 179.246C301.496 179.437 301.818 179.565 302.157 179.622C302.504 179.678 302.856 179.697 303.207 179.678C303.405 179.668 303.603 179.647 303.8 179.614C304.194 179.552 304.583 179.458 304.962 179.334C305.612 179.13 306.24 178.862 306.837 178.533C309.386 177.14 310.46 176.667 312.399 177.164C314.339 177.66 314.307 179.117 314.307 179.117L314.98 180.254Z" fill="#CFD8DC"/>
<path d="M314.98 180.254C310.707 186.052 304.556 190.191 297.572 191.968C302.694 189.767 307.398 186.892 310.612 183.345C313.826 179.798 314.98 180.254 314.98 180.254Z" fill="#ADBEC4"/>
<path d="M301.228 179.238C301.512 179.429 301.835 179.558 302.173 179.614C301.642 179.696 301.152 179.948 300.776 180.332C300.4 180.716 300.159 181.211 300.089 181.744L299.288 181.48C299.272 180.931 299.463 180.397 299.822 179.982C300.181 179.567 300.682 179.302 301.228 179.238Z" fill="#ADBEC4"/>
<path d="M302.541 181.952H301.676C301.524 181.545 301.49 181.104 301.578 180.679C301.666 180.254 301.872 179.863 302.173 179.55C302.52 179.606 302.872 179.625 303.223 179.606C302.914 179.903 302.688 180.276 302.568 180.688C302.449 181.1 302.44 181.535 302.541 181.952Z" fill="#ADBEC4"/>
<path d="M304.681 181.48L303.823 181.592C303.682 181.28 303.608 180.941 303.608 180.599C303.608 180.256 303.682 179.918 303.823 179.606C304.218 179.544 304.606 179.45 304.986 179.326C304.776 179.639 304.64 179.995 304.587 180.368C304.534 180.741 304.566 181.121 304.681 181.48Z" fill="#ADBEC4"/>
<path d="M222.178 90.2021C222.178 90.2021 224.086 100.459 220.239 104.542C216.392 108.626 218.933 105.271 220.079 100.002C221.225 94.7339 220.351 89.1852 222.178 90.2021Z" fill="#CE364C"/>
<path d="M239.938 85.6221C239.938 85.6221 246.006 87.6158 249.171 93.2046C249.171 93.2046 244.94 84.1008 239.938 85.6221Z" fill="#CE364C"/>
<path d="M82.4107 9.40532C83.4899 9.61322 84.5452 9.92977 85.5605 10.3501C87.2756 11.415 88.2374 11.9515 89.3755 12.0796C90.5136 12.2077 90.9784 14.1373 90.9784 14.1373C90.9784 14.1373 95.4666 15.1222 95.7151 12.2878C95.7151 12.2878 93.2065 8.74076 93.0302 8.28437C92.6775 7.33156 93.3267 5.88233 92.3169 4.28097C91.6139 2.99544 91.1112 1.61036 90.8261 0.173473C90.8261 0.173473 89.8243 -0.138794 89.7201 0.838036C89.6159 1.81487 90.3452 3.19204 90.1609 3.60839C90.1279 3.69327 90.0848 3.77391 90.0327 3.8486C89.9503 3.98231 89.8392 4.09615 89.7076 4.18197C89.576 4.2678 89.427 4.32347 89.2713 4.34502C89.2507 4.35306 89.2278 4.35306 89.2072 4.34502C88.0851 4.34502 86.1135 2.74366 85.304 1.99102C84.182 0.918106 82.547 -0.483085 82.1783 0.461718C81.8096 1.40652 83.0359 1.35047 85.0876 4.19289L84.8793 4.48914C85.0155 4.69732 82.8516 3.62441 81.1284 2.27126C79.9422 1.34247 79.6938 2.44741 79.8941 2.92781C80.0945 3.40822 81.433 4.16086 82.2985 4.84144C82.8676 5.28982 83.4607 5.74621 83.8213 6.01844L83.7091 6.47483C80.7677 5.83429 80.3109 4.73735 79.7018 5.34587C79.0927 5.95439 80.92 7.19545 81.8577 7.41163C82.4679 7.61344 83.0538 7.88196 83.6049 8.21231C81.2646 8.16427 80.6876 7.41163 80.2949 8.01214C79.9022 8.61265 81.6013 9.39732 82.4107 9.40532Z" fill="#FF8B66"/>
<path d="M89.8806 7.24343C89.1673 5.89828 89.9286 4.08874 90.0248 3.87256C89.9424 4.00627 89.8314 4.12011 89.6998 4.20594C89.5681 4.29176 89.4191 4.34744 89.2634 4.36898C89.0654 4.8546 89.0183 5.38854 89.1284 5.90125C89.2385 6.41397 89.5006 6.88167 89.8806 7.24343Z" fill="#EF6E4B"/>
<path d="M214.452 9.40532C213.37 9.61227 212.312 9.92884 211.294 10.3501C209.579 11.415 208.617 11.9515 207.479 12.0796C206.341 12.2077 205.876 14.1373 205.876 14.1373C205.876 14.1373 201.388 15.1222 201.14 12.2878C201.14 12.2878 203.648 8.74076 203.825 8.28437C204.177 7.33156 203.528 5.88233 204.538 4.28097C205.241 2.99544 205.743 1.61036 206.029 0.173473C206.029 0.173473 207.03 -0.138794 207.135 0.838036C207.239 1.81487 206.509 3.19204 206.694 3.60839C206.727 3.69327 206.77 3.77391 206.822 3.8486C206.904 3.98231 207.015 4.09615 207.147 4.18197C207.279 4.2678 207.428 4.32347 207.583 4.34502C207.604 4.35306 207.627 4.35306 207.648 4.34502C208.77 4.34502 210.741 2.74366 211.551 1.99102C212.673 0.918106 214.308 -0.483085 214.676 0.461718C215.045 1.40652 213.819 1.35047 211.767 4.19289L211.975 4.48914C211.839 4.69732 214.003 3.62441 215.726 2.27126C216.912 1.34247 217.161 2.44741 216.961 2.92781C216.76 3.40822 215.422 4.16086 214.556 4.84144L213.041 6.01844L213.194 6.50686C216.135 5.86631 216.592 4.76938 217.201 5.3779C217.81 5.98642 215.983 7.22747 215.045 7.44365C214.435 7.64547 213.849 7.91399 213.298 8.24434C215.638 8.19629 216.215 7.44365 216.608 8.04416C217.001 8.64468 215.253 9.39732 214.452 9.40532Z" fill="#FF8B66"/>
<path d="M206.974 7.24343C207.688 5.89828 206.926 4.08874 206.83 3.87256C206.913 4.00627 207.024 4.12011 207.155 4.20594C207.287 4.29176 207.436 4.34744 207.591 4.36898C207.79 4.8546 207.837 5.38854 207.726 5.90125C207.616 6.41397 207.354 6.88167 206.974 7.24343Z" fill="#EF6E4B"/>
<path d="M175.012 145.313L166.388 91.9875L149.125 93.9092L131.861 91.9875L123.237 145.313L119.094 197.069C119.094 197.069 120.416 201.361 129.024 198.398C129.024 198.398 135.436 150.421 136.405 149.364C137.375 148.307 147.538 116.969 147.538 116.969H150.744C150.744 116.969 160.89 148.307 161.876 149.364C162.862 150.421 169.249 198.398 169.249 198.398C177.865 201.361 179.18 197.069 179.18 197.069L175.012 145.313Z" fill="#0E3944"/>
<path d="M143.683 40.3354C144.773 41.4004 150.143 43.314 152.972 40.3354L154.895 42.2251C154.895 42.2251 152.707 47.3734 148.86 47.5496C145.013 47.7257 142.24 42.9697 142.24 42.9697L143.683 40.3354Z" fill="#0C476B"/>
<path d="M158.879 39.7591C165.291 36.9967 186.049 29.6545 186.049 29.6545C186.049 29.6545 199.994 12.1996 202.879 9.63745C202.879 9.63745 205.965 10.1979 206.887 14.0332C206.887 14.0332 197.902 33.2495 193.021 38.7422C188.14 44.2349 163.359 56.149 163.359 56.149L158.879 39.7591Z" fill="#0C476B"/>
<path d="M136.406 39.3348C138.313 38.1338 147.907 44.5392 147.907 44.5392C147.907 44.5392 160.37 37.9256 163.303 39.2067C163.303 39.2067 165.94 42.7297 166.998 51.7934C168.056 60.8571 168.128 98.1528 168.128 98.1528C161.745 100.146 155.092 101.146 148.404 101.115C135.476 101.115 128.52 97.4162 128.52 97.4162C128.52 97.4162 126.219 45.7963 136.406 39.3348Z" fill="#FFB878"/>
<path d="M144.188 38.3899C144.188 38.3899 145.574 42.7296 144.188 44.403C144.188 44.403 145.622 47.4136 148.195 47.5417C151.176 47.7018 152.202 44.403 152.202 44.403C152.202 44.403 150.599 40.2154 152.202 38.7422L144.188 38.3899Z" fill="#EF6E4B"/>
<path d="M140.75 34.1222C140.75 34.1222 137.84 28.5174 138.418 22.5604C138.995 16.6033 148.035 15.2181 154.07 18.1566C154.07 18.1566 152.267 16.3951 152.972 15.9067C153.677 15.4183 154.896 18.549 154.896 18.549C154.896 18.549 156.811 17.9565 157.108 18.549C157.404 19.1415 155.144 19.4537 155.144 19.4537C155.144 19.4537 159.055 21.6236 155.401 33.1694L140.75 34.1222Z" fill="#8B383E"/>
<path d="M140.309 30.5832C140.309 30.5832 138.145 28.4214 137.904 30.9515C137.592 33.874 140.253 35.051 140.774 34.1543C141.295 33.2575 140.309 30.5832 140.309 30.5832Z" fill="#FF8B66"/>
<path d="M155.489 30.7353C155.489 30.7353 157.653 28.5735 157.893 31.1036C158.206 34.0261 155.545 35.2031 155.024 34.3064C154.503 33.4096 155.489 30.7353 155.489 30.7353Z" fill="#FF8B66"/>
<path d="M147.674 41.1842C142.865 41.1842 140.148 38.0455 140.148 28.6295C140.148 23.7774 142.617 20.7988 148.003 20.7988C153.389 20.7988 155.657 23.7774 155.657 28.6295C155.657 38.7421 152.635 41.1842 147.674 41.1842Z" fill="#FF8B66"/>
<path d="M154.07 31.9924C154.081 32.2578 153.989 32.5171 153.813 32.7157C153.636 32.9144 153.39 33.0368 153.125 33.0574C152.952 33.0489 152.786 32.992 152.645 32.8933C152.504 32.7945 152.394 32.658 152.327 32.4994C152.26 32.3407 152.24 32.1665 152.268 31.9967C152.296 31.827 152.372 31.6686 152.486 31.5399C152.6 31.4112 152.749 31.3174 152.914 31.2693C153.08 31.2212 153.255 31.2208 153.421 31.2681C153.586 31.3154 153.735 31.4085 153.85 31.5367C153.965 31.6648 154.041 31.8228 154.07 31.9924Z" fill="#DB614D"/>
<path d="M144.18 32.2487C144.224 32.4814 144.195 32.7223 144.096 32.9376C143.997 33.1529 143.833 33.3319 143.627 33.4496C143.421 33.5673 143.184 33.6179 142.948 33.5942C142.712 33.5704 142.489 33.4737 142.311 33.3173C142.133 33.161 142.008 32.953 141.954 32.7223C141.9 32.4916 141.919 32.2498 142.009 32.0306C142.099 31.8115 142.256 31.6259 142.457 31.4999C142.658 31.374 142.893 31.3138 143.13 31.3279C143.389 31.3186 143.643 31.4088 143.838 31.58C144.033 31.7512 144.155 31.9904 144.18 32.2487Z" fill="#DB614D"/>
<path d="M151.866 27.1084C151.833 27.109 151.801 27.1021 151.772 27.0882C151.743 27.0743 151.717 27.0538 151.697 27.0283C151.192 26.5936 150.545 26.3574 149.878 26.3638C149.846 26.3648 149.815 26.3597 149.785 26.3486C149.756 26.3375 149.729 26.3207 149.706 26.2991C149.682 26.2775 149.664 26.2516 149.651 26.2229C149.638 26.1941 149.63 26.1631 149.629 26.1316C149.627 26.0998 149.632 26.0678 149.642 26.0378C149.653 26.0077 149.67 25.9802 149.692 25.9569C149.713 25.9336 149.74 25.9151 149.769 25.9024C149.798 25.8898 149.83 25.8833 149.862 25.8833C150.674 25.8605 151.465 26.1467 152.074 26.684C152.118 26.7289 152.143 26.7893 152.143 26.8522C152.143 26.9151 152.118 26.9754 152.074 27.0203C152.05 27.0515 152.018 27.076 151.981 27.0914C151.945 27.1068 151.905 27.1127 151.866 27.1084Z" fill="#8B383E"/>
<path d="M142.817 27.1082C142.786 27.1082 142.754 27.1018 142.726 27.0895C142.697 27.0771 142.671 27.0589 142.649 27.0362C142.605 26.9913 142.58 26.9309 142.58 26.868C142.58 26.8052 142.605 26.7448 142.649 26.6999C143.258 26.1626 144.049 25.8764 144.861 25.8992C144.893 25.8991 144.924 25.9056 144.954 25.9183C144.983 25.9309 145.009 25.9495 145.031 25.9728C145.053 25.9961 145.07 26.0236 145.08 26.0536C145.091 26.0837 145.095 26.1156 145.093 26.1474C145.089 26.2104 145.061 26.2695 145.015 26.3127C144.969 26.3558 144.908 26.3798 144.845 26.3796C144.168 26.3706 143.51 26.6066 142.993 27.0442C142.971 27.0679 142.944 27.086 142.913 27.0972C142.882 27.1083 142.849 27.1121 142.817 27.1082Z" fill="#8B383E"/>
<path d="M151.481 29.6544C151.481 30.2549 151.209 30.7353 150.88 30.7353C150.552 30.7353 150.279 30.2549 150.279 29.6544C150.279 29.0539 150.544 28.5735 150.88 28.5735C151.217 28.5735 151.481 29.0619 151.481 29.6544Z" fill="#1A4850"/>
<path d="M145.069 29.6544C145.069 30.2549 144.805 30.7353 144.468 30.7353C144.132 30.7353 143.867 30.2549 143.867 29.6544C143.867 29.0539 144.14 28.5735 144.468 28.5735C144.797 28.5735 145.069 29.0619 145.069 29.6544Z" fill="#1A4850"/>
<path d="M145.069 36.036C145.069 36.036 149.309 36.5804 151.481 35.5396C151.481 35.5396 150.247 38.422 147.931 38.1658C147.3 38.1199 146.696 37.8951 146.189 37.5178C145.682 37.1405 145.294 36.6264 145.069 36.036Z" fill="#1A4850"/>
<path d="M155.16 31.8003C155.16 31.8003 155.008 26.5799 152.972 22.5605C152.972 22.5605 149.382 24.2179 148.596 23.8255C147.811 23.4332 149.35 22.5605 149.35 22.5605C149.35 22.5605 143.427 24.5141 143.066 24.1618C142.705 23.8095 145.03 22.5605 145.03 22.5605L141.343 23.8255C141.343 23.8255 140.205 28.5255 140.678 31.8323C140.678 31.8323 139.075 29.102 138.898 27.2124C138.722 25.3228 139.532 19.9502 145.086 19.5579C150.64 19.1656 153.766 20.4226 155.144 22.9768C156.523 25.531 156.346 28.6216 155.16 31.8003Z" fill="#8B383E"/>
<path d="M148.508 34.5307C148.142 34.5224 147.778 34.4686 147.426 34.3706L147.562 33.8741C148.067 34.0183 148.852 34.0983 149.029 33.8741C149.085 33.8021 149.029 33.6339 148.965 33.4177C148.267 31.9445 148.123 28.2053 148.115 28.0452H148.628C148.628 28.0452 148.772 31.8404 149.429 33.2176C149.529 33.3655 149.582 33.5397 149.582 33.718C149.582 33.8963 149.529 34.0705 149.429 34.2184C149.307 34.3326 149.161 34.4195 149.002 34.4733C148.843 34.5272 148.675 34.5467 148.508 34.5307Z" fill="#DB614D"/>
<path d="M153.829 41.7367C153.829 41.7367 162.533 68.7276 163.359 90.6823C163.359 90.6823 166.5 91.5471 170.035 86.735C173.569 81.9229 171.469 43.8185 164.697 37.4691C164.697 37.445 161.619 36.7485 153.829 41.7367Z" fill="#105E99"/>
<path d="M155.248 46.4368C155.248 46.4368 156.803 42.8177 156.113 40.3356C155.424 37.8535 152.972 40.3356 152.972 40.3356C152.972 40.3356 153.965 44.395 155.248 46.4368Z" fill="#0C476B"/>
<path d="M137.776 39.7591C131.364 36.9968 110.614 29.6546 110.614 29.6546C110.614 29.6546 96.6285 11.6873 93.7833 9.10107C92.7255 9.75659 91.8351 10.6492 91.1827 11.7082C90.5302 12.7673 90.1337 13.9635 90.0244 15.2023C90.0244 15.2023 98.8405 33.2176 103.689 38.7103C108.538 44.2029 133.296 56.1491 133.296 56.1491L137.776 39.7591Z" fill="#0C476B"/>
<path d="M142.833 41.7367C142.833 41.7367 134.129 68.7276 133.296 90.6823C133.296 90.6823 130.154 91.5471 126.619 86.735C123.085 81.9229 125.185 43.8185 131.965 37.4691C131.965 37.445 135.035 36.7485 142.833 41.7367Z" fill="#105E99"/>
<path d="M141.415 46.4368C141.415 46.4368 139.852 42.8177 140.549 40.3356C141.247 37.8535 143.683 40.3356 143.683 40.3356C143.683 40.3356 142.665 44.395 141.415 46.4368Z" fill="#0C476B"/>
<path d="M186.826 210.945H169.546C168.878 206.365 169.123 201.698 170.267 197.213L178.162 195.86C178.883 200.2 179.765 201.913 180.951 202.794C181.952 203.375 183.032 203.809 184.157 204.083C184.761 204.267 185.316 204.586 185.778 205.016C186.24 205.446 186.599 205.976 186.826 206.565C187.272 207.991 187.272 209.519 186.826 210.945Z" fill="#662C33"/>
<path d="M186.85 206.565C182.586 207.101 173.225 208.006 173.802 205.548C174.275 203.49 178.226 202.93 180.951 202.794C181.952 203.374 183.032 203.809 184.157 204.083C184.766 204.264 185.325 204.581 185.792 205.012C186.258 205.442 186.62 205.973 186.85 206.565Z" fill="#8B383E"/>
<path d="M128.96 210.945H111.68C111.346 209.871 111.245 208.738 111.384 207.622C111.474 206.809 111.8 206.041 112.323 205.412C112.846 204.783 113.542 204.321 114.325 204.083C115.824 203.57 116.97 203.378 117.908 202.481C118.845 201.585 119.695 199.743 120.312 195.844L128.207 197.197C129.36 201.685 129.616 206.357 128.96 210.945Z" fill="#662C33"/>
<path d="M111.408 207.622C111.498 206.809 111.825 206.041 112.348 205.412C112.871 204.783 113.567 204.321 114.35 204.083C115.848 203.57 116.994 203.378 117.932 202.481C120.12 203.154 123.182 204.387 124.127 206.261C125.426 208.847 115.327 208.438 111.408 207.622Z" fill="#8B383E"/>
<path d="M253.011 209.712C253.014 210.124 252.987 210.536 252.931 210.945H231.94C231.94 210.536 231.94 210.144 231.94 209.712C232.141 206.223 232.815 202.778 233.944 199.471L239.186 197.213C239.447 199.395 240.551 201.389 242.263 202.77C242.637 203.075 243.04 203.343 243.465 203.57C243.658 203.674 243.85 203.77 244.051 203.859C244.485 204.055 244.932 204.22 245.389 204.355C247.044 204.778 248.73 205.073 250.43 205.236C252.666 205.548 253.011 208.134 253.011 209.712Z" fill="#164353"/>
<path d="M253.011 209.712C253.014 210.124 252.987 210.536 252.931 210.945H231.94C231.94 210.536 231.94 210.144 231.94 209.712H253.011Z" fill="#225866"/>
<path d="M243.465 203.538L240.556 204.467L239.938 203.402L242.263 202.77C242.638 203.064 243.04 203.321 243.465 203.538Z" fill="#225866"/>
<path d="M245.388 204.323L243.425 205.628L242.223 205.156L244.05 203.827C244.484 204.023 244.931 204.189 245.388 204.323Z" fill="#225866"/>
<path d="M172.808 209.712C172.777 210.131 172.696 210.545 172.567 210.945H158.59C158.416 210.549 158.284 210.135 158.197 209.712C156.819 203.026 166.108 194.851 166.108 194.851L169.057 198.782C169.057 198.782 168.72 205.068 171.213 206.381C171.79 206.704 172.254 207.197 172.539 207.794C172.825 208.39 172.919 209.06 172.808 209.712Z" fill="#164353"/>
<path d="M158.197 209.712H172.808C172.777 210.131 172.696 210.545 172.568 210.945H158.59C158.416 210.549 158.284 210.135 158.197 209.712Z" fill="#225866"/>
<path d="M170.572 205.876C170.572 205.876 164.681 204.539 161.996 206.277V205.3C161.996 205.3 166.957 202.898 170.572 205.876Z" fill="#225866"/>
<path d="M169.41 204.387C168.235 203.897 166.975 203.645 165.703 203.645C164.43 203.645 163.17 203.897 161.996 204.387L162.413 203.41C162.413 203.41 166.773 201.761 169.41 204.387Z" fill="#225866"/>
<path d="M246.671 150.285C246.671 155.89 241.686 201.713 241.686 201.713C238.68 202.012 235.646 201.842 232.693 201.208C231.323 177.989 231.187 158.028 231.187 158.028L207.255 140.108L207.191 140.068L206.942 141.197C205.756 146.45 200.739 168.468 198.655 173.505C196.251 179.254 170.267 203.41 170.267 203.41C165.458 202.738 161.339 199.247 161.339 199.247C170.716 183.777 183.403 168.244 183.403 168.244C184.397 162.639 185.11 150.269 185.527 141.021V140.589C185.808 134.311 185.952 129.579 185.952 129.579L181.56 120.588L209.427 110.363L215.678 118.37L219.357 121.813L219.67 122.101C228.061 129.964 246.671 147.771 246.671 150.285Z" fill="#8BBDDB"/>
<path d="M185.527 141.021V140.589C191.394 137.386 190.408 132.326 190.392 132.278L190.753 132.214C190.801 132.254 191.851 137.714 185.527 141.021Z" fill="#6097B2"/>
<path d="M206.823 136.521C207.037 137.708 207.181 138.905 207.256 140.108L207.191 140.068L206.943 141.197C206.687 132.494 203.088 127.346 203.048 127.29L203.352 127.073C205.065 129.834 206.229 132.897 206.783 136.097C211.022 132.334 206.871 124.631 206.831 124.559L207.151 124.383C207.167 124.463 211.591 132.614 206.823 136.521Z" fill="#6097B2"/>
<path d="M219.694 122.077C219.509 122.143 219.314 122.176 219.117 122.173C217.066 122.173 213.619 119.299 213.459 119.163L213.699 118.874C214.821 119.827 217.939 122.077 219.414 121.773L219.694 122.077Z" fill="#6097B2"/>
<path d="M183.54 72.6751C183.54 72.6751 192.02 71.3139 196.259 74.0122C200.499 76.7105 206.085 83.7805 206.085 83.7805C206.085 83.7805 199.465 84.6533 198.72 89.1451C198.72 89.1451 193.911 77.7034 183.54 72.6751Z" fill="#ADBEC4"/>
<path d="M170.789 77.0867C167.198 79.0243 161.171 86.2945 160.939 90.7703C160.706 95.2461 163.904 99.1374 166.084 102.548C172.889 113.189 180.054 122.565 183.091 135.072C183.091 135.152 198.656 141.309 216.889 119.411C216.889 119.411 206.59 105.559 203.024 93.7889C201.581 88.9848 200.106 83.8845 197.317 79.6569C195.859 77.3653 193.811 75.5079 191.387 74.2794C188.963 73.051 186.252 72.4968 183.54 72.6749C178.916 73.0513 174.323 75.1811 170.789 77.0867Z" fill="#CFD8DC"/>
<path d="M169.282 72.627C169.282 72.627 171.574 76.5424 170.516 78.6962C170.516 78.6962 178.387 81.4105 178.387 77.0067C178.387 77.0067 176.904 73.7159 177.465 71.5781L169.282 72.627Z" fill="#EF6E4B"/>
<path d="M186.746 99.4338C186.746 99.4338 182.37 100.675 181.264 102.228C180.157 103.782 179.18 107.249 179.18 107.249H186.746L188.172 104.63L189.839 101.139L186.746 99.4338Z" fill="#EF6E4B"/>
<path d="M179.533 68.2632C179.533 68.2632 182.61 66.9741 180.615 57.7423C179.3 51.6171 177.409 50.7043 176.174 50.6563C176.174 50.6563 174.676 48.3983 169.474 49.4793C167.673 49.7838 165.995 50.5947 164.639 51.817C163.282 53.0393 162.301 54.6224 161.812 56.3811C160.506 60.5607 163.119 69.5123 166.565 70.4011L179.533 68.2632Z" fill="#164353"/>
<path d="M180.262 62.0179C180.262 62.0179 182.194 59.3277 182.931 62.0179C183.732 65.0926 181.136 66.822 180.414 65.9173C179.693 65.0125 180.262 62.0179 180.262 62.0179Z" fill="#FF8B66"/>
<path d="M164.056 64.8604C164.056 64.8604 161.355 62.9307 161.516 65.661C161.7 68.8638 164.722 69.6644 165.146 68.5515C165.571 67.4385 164.056 64.8604 164.056 64.8604Z" fill="#FF8B66"/>
<path d="M174.259 74.6527C179.404 73.812 181.753 69.9768 180.094 59.9042C179.236 54.7158 176.086 51.9614 170.3 52.9142C164.513 53.8671 162.638 57.4461 163.495 62.6425C165.283 73.4597 168.945 75.5335 174.259 74.6527Z" fill="#FF8B66"/>
<path d="M165.795 65.9492C165.737 66.1981 165.758 66.4589 165.854 66.6955C165.951 66.9321 166.119 67.1329 166.335 67.27C166.551 67.4071 166.804 67.4738 167.059 67.4609C167.315 67.448 167.56 67.3561 167.761 67.1979C167.962 67.0397 168.109 66.823 168.181 66.5779C168.253 66.3327 168.247 66.0712 168.164 65.8294C168.081 65.5877 167.925 65.3777 167.718 65.2284C167.51 65.0792 167.261 64.9981 167.005 64.9964C166.719 64.9647 166.431 65.0469 166.205 65.2251C165.978 65.4034 165.831 65.6635 165.795 65.9492Z" fill="#DB614D"/>
<path d="M176.423 64.4922C176.426 64.7474 176.509 64.9953 176.659 65.2016C176.809 65.408 177.02 65.5626 177.262 65.6443C177.504 65.7259 177.766 65.7305 178.01 65.6574C178.255 65.5842 178.471 65.4371 178.629 65.2361C178.786 65.0351 178.877 64.7903 178.89 64.5354C178.902 64.2804 178.835 64.0279 178.697 63.8128C178.56 63.5976 178.359 63.4303 178.123 63.334C177.886 63.2378 177.625 63.2172 177.376 63.2752C177.09 63.3132 176.829 63.4619 176.651 63.6894C176.473 63.9168 176.391 64.205 176.423 64.4922Z" fill="#DB614D"/>
<path d="M167.238 60.3445C167.186 60.3445 167.135 60.3277 167.094 60.2965C167.065 60.2779 167.04 60.2537 167.021 60.2254C167.002 60.1971 166.988 60.1652 166.982 60.1316C166.975 60.098 166.975 60.0634 166.982 60.0298C166.989 59.9963 167.002 59.9644 167.022 59.9362C167.576 59.2466 168.373 58.7941 169.25 58.6711C169.284 58.6655 169.318 58.6669 169.352 58.6753C169.385 58.6837 169.416 58.6989 169.443 58.72C169.47 58.7411 169.493 58.7675 169.509 58.7977C169.525 58.8279 169.535 58.8611 169.538 58.8953C169.547 58.9643 169.529 59.034 169.487 59.0895C169.445 59.145 169.383 59.1816 169.314 59.1916C168.587 59.2971 167.924 59.6679 167.454 60.2324C167.431 60.2676 167.398 60.2962 167.36 60.3158C167.323 60.3354 167.281 60.3453 167.238 60.3445Z" fill="#1A4850"/>
<path d="M176.927 58.7432C176.87 58.7434 176.815 58.7267 176.767 58.6952C176.142 58.3118 175.397 58.1721 174.675 58.3029C174.607 58.3172 174.536 58.3042 174.478 58.2668C174.419 58.2293 174.378 58.1704 174.363 58.1027C174.356 58.069 174.356 58.0342 174.362 58.0005C174.369 57.9668 174.383 57.9348 174.402 57.9064C174.422 57.878 174.447 57.8538 174.476 57.8352C174.505 57.8167 174.537 57.8042 174.571 57.7984C175.438 57.6308 176.336 57.8028 177.08 58.2788C177.136 58.3204 177.173 58.3824 177.184 58.4514C177.194 58.5204 177.177 58.5908 177.136 58.6471C177.11 58.6769 177.078 58.7009 177.042 58.7175C177.006 58.734 176.967 58.7428 176.927 58.7432Z" fill="#1A4850"/>
<path d="M168.176 62.9948C168.28 63.6273 168.657 64.0997 168.978 64.0436C169.298 63.9876 169.539 63.4191 169.426 62.7786C169.314 62.138 168.954 61.6736 168.625 61.7297C168.296 61.7857 168.072 62.3542 168.176 62.9948Z" fill="#1A4850"/>
<path d="M175.044 61.8579C175.148 62.4984 175.525 62.9708 175.846 62.9067C176.166 62.8427 176.407 62.2902 176.302 61.6497C176.198 61.0091 175.822 60.5447 175.501 60.6008C175.18 60.6568 174.94 61.2253 175.044 61.8579Z" fill="#1A4850"/>
<path d="M176.976 67.6548C176.976 67.6548 172.512 68.8478 170.035 68.3754C170.035 68.3754 171.75 70.5292 174.187 69.9047C176.623 69.2802 176.976 67.6548 176.976 67.6548Z" fill="#1A4850"/>
<path d="M177.184 55.2363C173.288 57.8579 168.773 59.4148 164.088 59.7522L164.296 66.2377C164.296 66.2377 157.508 53.7311 170.94 51.5212C184.373 49.3113 180.462 63.2672 180.462 63.2672C180.462 63.2672 180.045 57.246 177.184 55.2363Z" fill="#0E3944"/>
<path d="M172.44 65.9174L172.4 65.3569C172.4 65.3569 173.201 65.2929 173.386 64.8125C173.466 64.6203 173.137 64.0118 172.849 63.4353C172.34 62.5606 171.962 61.6165 171.727 60.6329L172.28 60.5288C172.504 61.4569 172.863 62.3472 173.346 63.1711C173.778 63.9717 174.091 64.5883 173.899 65.0286C173.562 65.8293 172.48 65.9094 172.44 65.9174Z" fill="#DB614D"/>
<path d="M180.334 55.2523C170.572 51.0167 161.355 59.7922 161.355 59.7922C161.355 59.7922 160.281 52.6821 162.156 50.9847C162.654 50.5496 163.191 50.161 163.759 49.8237C168.079 47.1014 173.81 47.1574 176.438 48.0862C176.882 48.2179 177.29 48.4478 177.633 48.7588C179.147 50.4002 180.334 55.2523 180.334 55.2523Z" fill="#CE364C"/>
<path d="M179.148 53.6669C173.624 52.8579 167.994 54.0783 163.303 57.1019C163.303 57.1019 162.814 52.514 163.719 49.8957C168.039 47.1734 173.77 47.2295 176.399 48.1583C177.929 49.8717 179.148 53.6669 179.148 53.6669Z" fill="#CFD8DC"/>
<path d="M162.156 58.9595C162.156 58.9595 163.463 53.4428 165.21 51.8895C168.127 49.3033 176.31 48.4145 180.614 49.9678C184.918 51.5211 180.614 56.2211 180.614 56.2211C180.614 56.2211 173.761 51.345 162.156 58.9595Z" fill="#A02E44"/>
<path d="M174.828 95.6226C177.185 99.0152 180.281 101.829 183.884 103.854C183.884 103.854 191.026 97.6643 200.29 98.2488C200.29 98.2488 192.612 112.077 186.024 113.614C182.562 114.415 170.035 106.135 170.035 106.135C170.035 106.135 172.536 97.304 174.828 95.6226Z" fill="#FF8B66"/>
<path d="M162.477 86.2147C165.547 81.2264 172.624 88.6167 175.036 93.8692C177.449 99.1216 179.204 100.275 179.204 100.275C179.204 100.275 172.127 103.229 172.183 108.522C172.183 108.498 155.785 97.1039 162.477 86.2147Z" fill="#ADBEC4"/>
<path d="M183.885 101.58C183.885 101.58 188.197 97.36 202.318 91.8513L200.491 86.1024C202.094 83.9646 205.1 83.9646 205.1 83.9646C205.1 83.9646 212.353 94.1973 211.103 97.2559C210.365 99.1695 195.234 101.171 183.885 101.58Z" fill="#EF6E4B"/>
<path d="M199.393 93.2287C199.513 92.7417 199.731 92.2842 200.034 91.8835C200.555 91.1469 200.41 89.8017 200.603 89.3854C200.795 88.969 201.901 87.2636 202.639 86.9353C203.376 86.607 204.354 86.0626 204.554 86.9994C204.754 87.9362 203.232 87.6719 202.542 89.0251C203.415 88.7502 204.339 88.6789 205.243 88.8169C206.437 89.0971 206.774 90.1861 205.299 90.154C204.354 90.2239 203.436 90.497 202.606 90.9547C202.606 90.9547 204.145 91.1869 203.897 91.8915C203.576 92.8764 201.685 92.2758 199.393 93.2287Z" fill="#FF8B66"/>
<path d="M94.6492 112.501C95.9155 115.704 101.061 121.308 101.061 121.308C101.061 121.308 113.732 113.718 119.575 116.913C125.417 120.107 130.066 122.053 133.857 120.66C137.648 119.267 121.394 89.7375 121.394 89.7375L100.316 81.7307C100.316 81.7307 99.8587 87.0552 97.4543 88C95.0499 88.9448 92.4772 97.7363 92.6455 99.4017C92.8138 101.067 94.6492 112.501 94.6492 112.501Z" fill="#3E6575"/>
<path d="M118.365 121.485C118.365 121.485 112.931 132.126 101.71 145.753C101.71 145.753 100.556 161.959 70.8939 187.461L67.7842 185.059C67.7842 185.059 85.4565 157.411 88.9829 148.932C92.5094 140.453 87.0354 132.686 103.289 111.244L118.365 121.485Z" fill="#EF6E4B"/>
<path d="M101.069 102.653C96.3883 111.604 94.8174 123.046 94.8174 123.046L92.6855 128.418C97.8293 131.043 103.325 132.911 109.003 133.967L112.498 124.711L101.069 102.653Z" fill="#662C33"/>
<path d="M125.465 120.644C125.465 120.644 127.782 132.366 127.397 150.005C127.397 150.005 136.526 163.456 129 201.817H125.033C125.033 201.817 121.827 169.173 119.334 160.334C116.842 151.494 107.745 148.772 107.248 121.901L125.465 120.644Z" fill="#FF8B66"/>
<path d="M127.781 133.223C127.781 133.223 120.352 134.56 107.256 133.943L107.047 132.47L106.999 132.094L105.637 122.558C104.659 121.279 103.803 119.912 103.08 118.474C102.928 118.178 102.784 117.874 102.631 117.553C100.868 113.798 99.3053 108.345 101.028 102.653L103.794 102.781H104.178L113.427 103.197H113.82L116.857 103.341H117.33L119.302 103.437C119.302 103.437 129.32 112.445 127.533 129.099L127.661 131.413V131.789L127.781 133.223Z" fill="#8B383E"/>
<path d="M104.194 102.805C103.938 103.565 102.183 109.21 103.064 118.474C102.912 118.178 102.768 117.873 102.616 117.553C101.958 109.09 103.473 103.813 103.81 102.781L103.874 102.588L104.227 102.716C104.213 102.745 104.203 102.774 104.194 102.805Z" fill="#662C33"/>
<path d="M127.71 131.853C125.073 132.526 120.617 132.71 116.377 132.71C112.578 132.71 108.972 132.558 107.048 132.47L107 132.094C110.326 132.254 119.078 132.598 124.728 131.981L124.368 126.024C124.383 120.125 123.011 114.305 120.36 109.034C118.778 108.827 117.29 108.168 116.073 107.137C114.856 106.106 113.963 104.746 113.5 103.221C113.452 103.053 113.428 102.949 113.428 102.941L113.796 102.885C113.82 103.007 113.852 103.127 113.893 103.245C114.337 104.629 115.157 105.862 116.26 106.809C117.364 107.756 118.708 108.379 120.144 108.61C119.222 106.784 118.149 105.038 116.938 103.389L116.666 103.029L116.946 102.797C116.946 102.797 117.131 103.013 117.411 103.405C119.126 105.743 124.929 114.511 124.785 126.008L125.145 131.933C126.02 131.842 126.888 131.69 127.742 131.477L127.71 131.853Z" fill="#662C33"/>
<path d="M108.779 62.4905C105.829 60.8891 84.5744 69.1922 84.5744 69.1922C84.5744 69.1922 81.4327 74.7969 83.3882 76.9908C85.3438 79.1847 92.3005 78.2238 94.4324 76.9908C96.5643 75.7577 102.207 74.837 102.207 74.837L108.779 62.4905Z" fill="#8BBDDB"/>
<path d="M127.565 44.8194C128.982 45.4606 130.247 46.3921 131.28 47.5535C132.313 48.715 133.09 50.0804 133.56 51.5612C135.163 56.6134 130.354 69.4083 132.029 75.2853C133.704 81.1623 133.432 92.2678 128.238 94.5817C123.045 96.8957 112.433 92.7322 110.149 86.3107C107.865 79.8892 108.851 55.5966 113.235 47.3336C117.619 39.0705 126.507 43.2581 127.565 44.8194Z" fill="#F24052"/>
<path d="M122.525 66.614C123.679 67.8631 126.66 65.6372 126.66 65.6372C126.66 65.6372 126.636 76.6625 123.43 77.5113C120.224 78.36 112.049 68.8239 112.386 66.2377C112.723 63.6515 119.952 63.8516 122.525 66.614Z" fill="#8BBDDB"/>
<path d="M110.158 63.8596C112.791 65.8452 115.828 67.2308 119.054 67.9191C124.705 69.2322 127.774 66.5739 130.66 70.217C135.004 75.6777 127.943 85.7582 124.248 90.9787C122.861 92.9243 119.936 98.3209 119.351 103.501C119.351 103.501 109.541 106.344 101.086 102.653L100.452 90.6424C100.452 90.6424 95.1066 74.4286 110.158 63.8596Z" fill="#0E3944"/>
<path d="M120.296 75.5495C120.296 75.5495 124.776 64.8845 126.074 64.2039C127.373 63.5233 130.667 65.1567 131.324 66.6059C131.981 68.0552 131.324 71.2499 131.324 71.2499C131.324 71.2499 127.79 67.2305 120.296 75.5495Z" fill="#8BBDDB"/>
<path d="M141.76 120.644C139.724 124.807 134.723 126.008 134.723 126.008C134.723 126.008 134.346 125.432 133.705 124.407C133.641 124.303 133.569 124.191 133.505 124.071C129.569 117.665 117.539 97.304 117.78 86.6949C117.828 83.0191 118.61 79.3897 120.078 76.0188C121.546 72.6479 123.672 69.6032 126.332 67.0623C130.531 68.0631 131.854 69.2081 131.854 69.2081C132.712 74.4655 132.752 79.8238 131.974 85.0936C130.676 93.765 128.319 96.0629 129.505 96.7115C130.692 97.36 129.505 98.6491 129.505 98.6491C129.505 98.6491 136.478 108.353 137.785 111.372C138.626 113.342 140.069 116.688 140.99 118.778C141.054 118.922 141.111 119.074 141.175 119.203C141.519 120.067 141.76 120.644 141.76 120.644Z" fill="#6097B2"/>
<path d="M129.65 69.1921C129.65 69.1921 124.656 72.8913 127.566 78.5361L141.407 92.8523C133.809 100.931 133.056 104.254 127.566 107.985L129.65 111.188C129.65 111.188 148.885 96.4313 148.885 92.8363C148.917 91.315 137.159 72.7071 129.65 69.1921Z" fill="#FF8B66"/>
<path d="M127.261 107.985C125.817 108.143 124.383 108.378 122.965 108.69C121.306 109.106 119.094 109.49 119.022 109.867C118.949 110.243 122.692 109.867 122.692 109.867C122.692 109.867 119.647 111.116 119.575 111.596C119.502 112.077 123.454 111.244 123.454 111.244C123.454 111.244 120.961 112.765 121.097 113.182C121.234 113.598 124.303 112.565 124.303 112.565C124.009 113.324 123.618 114.043 123.141 114.703C123.141 114.703 123.734 115.031 124.944 113.694C126.155 112.357 128.078 112.781 129.601 111.596C131.124 110.411 128.655 107.801 127.261 107.985Z" fill="#FF8B66"/>
<path d="M113.123 65.6372C113.123 65.6372 109.324 68.0872 106.928 74.0043C104.531 79.9213 96.9815 91.0748 95.1862 93.9492C93.3909 96.8237 94.6492 112.501 94.6492 112.501C94.6492 112.501 92.4292 102.997 91.4434 99.2978C90.4576 95.5986 94.6492 86.4869 95.2584 85.9664C95.8675 85.446 99.0974 86.3668 98.4642 82.6596C97.8311 78.9525 106.479 62.9389 108.763 62.4905C108.779 62.4905 112.458 63.1791 113.123 65.6372Z" fill="#6097B2"/>
<path d="M101.381 66.4378C101.312 66.5658 101.235 66.6889 101.149 66.8061C100.463 67.6821 99.6307 68.4325 98.6883 69.024C98.6883 69.024 95.795 73.0834 95.7629 73.5478C95.7309 74.0122 90.7297 77.5512 88.5497 77.5032C88.283 77.5128 88.0224 77.4213 87.8204 77.247C86.498 76.0059 92.3086 65.565 93.5909 63.3151C93.6711 63.171 93.7352 63.0589 93.7833 62.9869C93.7951 62.9529 93.8113 62.9206 93.8314 62.8908C93.8314 62.8908 92.8135 59.0875 97.0372 59.7921C100.588 60.3766 101.293 63.203 101.662 65.0846C101.727 65.5545 101.628 66.0325 101.381 66.4378Z" fill="#6097B2"/>
<path d="M86.4744 70.3773C89.4078 66.526 99.7227 59.0636 105.157 56.8538L106.519 59.3759C106.519 59.3759 96.0199 68.5997 93.5514 72.5391C91.0829 76.4784 88.0293 78.1439 85.112 76.8067C82.1946 75.4696 85.8653 71.186 86.4744 70.3773Z" fill="#FF8B66"/>
<path d="M100.356 65.645L99.8029 66.2776L99.5224 66.6059L98.5847 67.6547C98.5847 67.6547 96.2765 70.4571 96.3647 71.5781C96.4288 72.3788 91.9806 75.9978 88.4943 77.5031C87.0757 78.1116 85.8174 78.3839 85.088 77.9595C82.5634 76.5103 83.1325 72.1466 84.5591 69.152C85.8013 66.5818 91.3074 63.259 92.726 62.4423C92.8314 62.3715 92.9412 62.3073 93.0546 62.2502L93.5756 60.2084C93.5756 60.2084 95.4991 59.0554 97.0058 59.76C97.0058 59.76 93.6717 59.9042 94.2247 61.2013C94.7778 62.4984 99.4343 65.597 100.356 65.645Z" fill="#8BBDDB"/>
<path d="M112.466 54.964C109.108 56.3412 109.589 59.3758 106.519 59.3758C104.612 59.3758 104.363 57.1979 104.363 57.1979C105.18 55.1037 105.693 52.9036 105.886 50.6644C106.014 49.1511 106.519 49.7356 106.519 49.7356C106.519 49.5914 106.519 49.4633 106.519 49.3272C106.471 48.3104 106.287 47.5737 106.952 48.0141C107.617 48.4545 107.97 51.369 107.97 51.369C108.595 47.1814 107.665 46.5649 108.395 46.9332C109.38 47.4296 109.388 51.1368 109.388 51.2489C110.19 48.8468 109.974 47.4216 110.535 47.9741C111.096 48.5265 110.254 53.0104 109.917 54.6517C109.845 55.0201 109.789 55.2523 109.789 55.2523C112.434 53.9472 112.466 54.964 112.466 54.964Z" fill="#FF8B66"/>
<path d="M109.902 54.6518C109.829 55.0202 109.773 55.2524 109.773 55.2524C109.345 55.2499 108.924 55.3595 108.551 55.5702C108.179 55.7809 107.868 56.0854 107.649 56.4534C107.742 55.9313 108.022 55.4607 108.436 55.1292C108.85 54.7978 109.371 54.6281 109.902 54.6518Z" fill="#EF6E4B"/>
<path d="M106.703 52.738C106.703 52.3857 106.871 50.336 106.519 49.7355C106.519 49.5914 106.519 49.4633 106.519 49.3271C107.272 49.4873 106.783 52.3137 106.703 52.738Z" fill="#EF6E4B"/>
<path d="M108.779 70.4011C108.779 70.4011 111.047 64.2599 111.777 62.8907C112.506 61.5215 116.249 61.7537 119.094 62.2822C121.939 62.8106 122.524 66.6139 122.524 66.6139C122.524 66.6139 113.869 62.5544 108.779 70.4011Z" fill="#8BBDDB"/>
<path d="M123.43 58.3109C121.761 61.5937 120.846 65.2072 120.753 68.8879C120.753 68.8879 116.337 71.8824 114.758 68.1272C115.839 64.3765 116.134 60.4432 115.623 56.5734C115.046 52.1456 123.43 58.3109 123.43 58.3109Z" fill="#EF6E4B"/>
<path d="M114.718 51.3449C114.718 51.3449 113.916 48.4705 112.474 50.4882C110.815 52.8262 112.474 55.1001 113.395 54.5557C114.317 54.0112 114.718 51.3449 114.718 51.3449Z" fill="#FF8B66"/>
<path d="M127.549 58.7433C127.549 58.7433 130.426 57.9427 129.449 60.2246C128.303 62.8588 125.481 62.5866 125.481 61.5457C125.481 60.5048 127.549 58.7433 127.549 58.7433Z" fill="#FF8B66"/>
<path d="M115.896 63.8915C111.809 61.5855 111.007 57.6221 115.519 49.6234C117.844 45.4918 121.37 44.1467 125.938 46.7169C130.507 49.2871 131.02 52.9141 128.687 57.0377C123.863 65.637 120.12 66.2695 115.896 63.8915Z" fill="#FF8B66"/>
<path d="M125.746 59.1355C125.72 59.3647 125.623 59.5801 125.469 59.7518C125.314 59.9235 125.11 60.0431 124.885 60.094C124.66 60.1449 124.424 60.1246 124.211 60.0359C123.998 59.9472 123.818 59.7945 123.695 59.5989C123.573 59.4033 123.514 59.1745 123.527 58.9442C123.541 58.7138 123.625 58.4933 123.77 58.3132C123.914 58.133 124.111 58.0021 124.333 57.9385C124.555 57.875 124.791 57.882 125.009 57.9585C125.26 58.0213 125.478 58.179 125.615 58.3985C125.753 58.6179 125.8 58.8821 125.746 59.1355Z" fill="#DB614D"/>
<path d="M117.21 54.6277C117.129 54.8437 116.983 55.0292 116.792 55.1586C116.601 55.2881 116.374 55.355 116.143 55.3502C115.913 55.3453 115.689 55.269 115.504 55.1316C115.318 54.9943 115.18 54.8028 115.108 54.5836C115.036 54.3644 115.034 54.1283 115.103 53.908C115.171 53.6877 115.306 53.4941 115.489 53.3538C115.673 53.2136 115.895 53.1337 116.126 53.1253C116.357 53.1168 116.584 53.1801 116.777 53.3065C117.005 53.4293 117.177 53.6349 117.258 53.8807C117.338 54.1266 117.321 54.394 117.21 54.6277Z" fill="#DB614D"/>
<path d="M126.331 53.9632C126.278 53.9615 126.226 53.9427 126.184 53.9095C126.142 53.8764 126.112 53.8306 126.099 53.779C125.874 53.1592 125.429 52.6435 124.848 52.3298C124.821 52.3163 124.796 52.2973 124.776 52.2741C124.757 52.2508 124.742 52.2237 124.733 52.1944C124.724 52.1652 124.721 52.1344 124.724 52.104C124.727 52.0735 124.737 52.0441 124.752 52.0175C124.766 51.9901 124.785 51.9657 124.808 51.9456C124.831 51.9256 124.858 51.9103 124.887 51.9006C124.916 51.8909 124.946 51.8871 124.977 51.8893C125.007 51.8915 125.037 51.8997 125.065 51.9134C125.767 52.2871 126.3 52.9142 126.555 53.6669C126.564 53.6969 126.566 53.7282 126.562 53.7591C126.558 53.79 126.548 53.8198 126.532 53.8467C126.517 53.8736 126.496 53.897 126.471 53.9157C126.446 53.9343 126.417 53.9477 126.387 53.9552L126.331 53.9632Z" fill="#1A4850"/>
<path d="M120.713 49.9677C120.674 49.9787 120.633 49.9787 120.593 49.9677C120.024 49.6312 119.35 49.5171 118.702 49.6475C118.642 49.6653 118.578 49.6594 118.523 49.6311C118.467 49.6027 118.425 49.5541 118.405 49.4953C118.39 49.4349 118.398 49.3708 118.427 49.3159C118.457 49.261 118.506 49.2193 118.565 49.1991C119.341 49.0264 120.153 49.1583 120.834 49.5674C120.878 49.5933 120.912 49.6331 120.931 49.6805C120.951 49.728 120.954 49.7804 120.94 49.8297C120.926 49.879 120.896 49.9224 120.856 49.9532C120.815 49.9839 120.765 50.0003 120.713 49.9998V49.9677Z" fill="#1A4850"/>
<path d="M124.641 55.9009C124.352 56.4053 123.895 56.7015 123.615 56.5254C123.334 56.3492 123.334 55.8288 123.615 55.3244C123.895 54.8199 124.36 54.5237 124.641 54.6918C124.921 54.86 124.929 55.3884 124.641 55.9009Z" fill="#1A4850"/>
<path d="M118.909 52.8261C118.621 53.3306 118.164 53.6268 117.875 53.4587C117.587 53.2905 117.603 52.7621 117.875 52.2497C118.148 51.7372 118.621 51.449 118.909 51.6171C119.198 51.7853 119.19 52.3217 118.909 52.8261Z" fill="#1A4850"/>
<path d="M116.922 58.0305C116.922 58.0305 119.271 59.824 120.93 59.8801C120.93 59.8801 119.126 61.3453 117.836 60.3925C117.473 60.1281 117.193 59.7647 117.031 59.3458C116.869 58.9269 116.831 58.4703 116.922 58.0305Z" fill="#1A4850"/>
<path d="M123.43 54.8759C123.43 54.8759 124.512 53.835 124.952 54.1954C125.393 54.5557 125.161 55.8448 125.161 55.8448H126.099L125.297 55.5325C125.297 55.5325 125.546 54.2034 125.065 53.9311C124.375 53.5628 123.43 54.8759 123.43 54.8759Z" fill="#1A4850"/>
<path d="M119.35 52.7941C119.35 52.7941 119.687 51.3369 119.142 51.1447C118.597 50.9525 117.627 51.8173 117.627 51.8173L117.114 51.0166L117.787 51.521C117.787 51.521 118.797 50.6162 119.278 50.8885C119.975 51.2888 119.35 52.7941 119.35 52.7941Z" fill="#1A4850"/>
<path d="M127.037 48.4306C126.849 48.1563 126.605 47.9253 126.32 47.7531C126.036 47.5808 125.718 47.4713 125.388 47.4319C125.058 47.3925 124.723 47.424 124.406 47.5245C124.089 47.6249 123.797 47.7919 123.55 48.0142C121.53 49.6156 116.962 52.2098 114.734 51.3611C112.506 50.5123 119.647 40.9522 125.858 43.7466C132.07 46.541 131.517 55.6527 128.928 58.5512C126.339 61.4496 127.566 58.7433 127.566 58.7433C127.669 56.4362 128.018 54.1467 128.607 51.9135C128.749 51.5834 128.82 51.2275 128.817 50.8684C128.813 50.5093 128.735 50.1549 128.587 49.8275C128.44 49.5001 128.226 49.2069 127.959 48.9664C127.692 48.726 127.378 48.5435 127.037 48.4306Z" fill="#F24052"/>
<path d="M120.151 57.1018C120.032 57.101 119.914 57.0849 119.799 57.0537L119.919 56.5653C120.048 56.6194 120.192 56.6248 120.325 56.5807C120.458 56.5365 120.57 56.4457 120.64 56.3251C120.702 56.2252 120.735 56.1102 120.735 55.9928C120.735 55.8754 120.702 55.7604 120.64 55.6605C120.576 55.5965 120.464 55.5965 120.304 55.6605L120.071 55.2122C120.211 55.1133 120.381 55.0671 120.551 55.0818C120.721 55.0964 120.881 55.171 121.001 55.2922C121.139 55.4716 121.219 55.6887 121.231 55.9148C121.242 56.1408 121.184 56.3649 121.065 56.5573C120.976 56.7217 120.844 56.859 120.683 56.9548C120.522 57.0506 120.339 57.1014 120.151 57.1018Z" fill="#DB614D"/>
<path d="M150.095 92.2837C149.854 95.8708 140.958 107.561 139.483 107.977C139.072 108.106 138.682 108.298 138.329 108.546L137.872 108.89C137.336 109.336 136.84 109.829 136.39 110.363C133.793 110.187 126.516 106.824 128.856 106.079C129.022 106.022 129.178 105.941 129.321 105.839C129.427 105.765 129.528 105.685 129.625 105.599C132.382 103.293 137.744 93.9171 137.784 93.2045C137.824 92.4919 138.738 92.2837 138.738 92.2837C138.738 92.2837 133.681 84.8614 130.723 83.9647C127.766 83.0679 126.307 79.5209 126.307 79.5209C123.406 67.2705 131.829 69.1921 131.829 69.1921C138.065 72.8913 150.343 88.6887 150.095 92.2837Z" fill="#8BBDDB"/>
<path d="M138.329 108.546L137.872 108.89C134.813 108.594 131.875 107.546 129.32 105.839C129.426 105.765 129.528 105.685 129.625 105.599C132.222 107.318 135.221 108.333 138.329 108.546Z" fill="#3E6575"/>
<path d="M101.381 66.4378C101.313 66.5658 101.235 66.6889 101.149 66.8061C100.61 66.7844 100.074 66.7174 99.546 66.6059C97.2814 66.0964 95.2081 64.9553 93.5671 63.3151C93.2625 63.0188 92.998 62.7386 92.7656 62.5144C92.871 62.4436 92.9808 62.3794 93.0942 62.3223C93.2866 62.5384 93.503 62.7706 93.7594 63.0189C95.406 64.6984 97.5198 65.8449 99.8265 66.3097C100.34 66.3968 100.86 66.4397 101.381 66.4378Z" fill="#3E6575"/>
<path d="M141.142 119.187C140.376 120.559 139.309 121.74 138.02 122.641C136.732 123.542 135.257 124.14 133.704 124.391C133.64 124.287 133.568 124.175 133.504 124.055C135.074 123.815 136.565 123.212 137.86 122.293C139.154 121.373 140.215 120.164 140.958 118.762C141.062 118.906 141.062 119.058 141.142 119.187Z" fill="#3E6575"/>
<path d="M73.7388 186.54C73.0038 187.321 72.3685 188.189 71.8474 189.126C70.8856 190.799 71.9435 192.329 67.287 196.22C67.287 196.22 57.8778 190.719 53.6621 183.649C53.6991 183.06 53.9258 182.498 54.3086 182.048C54.6914 181.598 55.2096 181.283 55.786 181.151C56.892 180.903 59.9296 182.32 62.8469 182.873C63.2637 182.945 63.6484 183.009 64.0892 183.041C64.5845 183.097 65.0846 183.097 65.5799 183.041C66.0129 183.007 66.4377 182.904 66.8382 182.737C67.3856 182.504 67.8695 182.144 68.25 181.688C68.6305 181.231 68.8966 180.69 69.0262 180.11C69.3548 180.287 69.6407 180.533 69.8641 180.831C70.0874 181.129 70.2427 181.473 70.3191 181.838C70.3954 182.202 70.391 182.579 70.3061 182.942C70.2212 183.305 70.0579 183.645 69.8277 183.938C69.8277 183.938 72.7691 182.657 73.7388 186.54Z" fill="#CFD8DC"/>
<path d="M67.2548 196.22C67.2548 196.22 57.8456 190.719 53.6299 183.649C53.6299 183.649 55.2328 183.313 56.5071 185.651C57.7815 187.989 68.0162 193.322 67.2548 196.22Z" fill="#ADBEC4"/>
<path d="M67.3277 185.099C66.5262 186.308 66.5823 184.082 65.5645 183.033C65.9974 182.999 66.4222 182.896 66.8228 182.729C67.164 183.007 67.4 183.394 67.4918 183.825C67.5836 184.256 67.5257 184.705 67.3277 185.099Z" fill="#ADBEC4"/>
<path d="M64.3298 185.163C63.5284 185.963 63.2639 183.938 62.791 182.873C63.2078 182.945 63.5925 183.009 64.0333 183.041C64.5062 183.69 64.9229 184.578 64.3298 185.163Z" fill="#ADBEC4"/>
<path d="M131.549 210.945H118.252C117.926 209.671 117.926 208.335 118.252 207.061C118.493 206.181 119.855 205.356 121.146 204.211C121.509 203.894 121.849 203.551 122.163 203.186C122.419 202.883 122.645 202.556 122.837 202.209C123.092 201.782 123.279 201.317 123.39 200.832C123.609 199.608 123.452 198.347 122.941 197.213C122.941 197.213 127.469 196.268 129.088 198.734C129.088 198.734 129.24 197.597 130.691 198.358C130.575 199.758 130.602 201.167 130.771 202.562C131.036 204.467 132.815 205.028 131.549 210.945Z" fill="#CFD8DC"/>
<path d="M128.095 202.946C128.039 203.01 127.97 203.061 127.892 203.095C127.815 203.13 127.731 203.147 127.646 203.146C127.504 203.144 127.366 203.096 127.253 203.01C126.635 202.533 125.911 202.212 125.143 202.072C124.374 201.933 123.583 201.98 122.837 202.209C123.093 201.782 123.279 201.317 123.39 200.832C124.28 200.504 125.947 200.312 128.014 202.073C128.078 202.124 128.131 202.188 128.17 202.26C128.209 202.332 128.233 202.411 128.24 202.492C128.248 202.574 128.239 202.656 128.214 202.734C128.189 202.812 128.148 202.884 128.095 202.946Z" fill="#ADBEC4"/>
<path d="M126.973 205.156L126.901 205.26C126.818 205.389 126.689 205.482 126.54 205.519C126.391 205.556 126.233 205.535 126.099 205.46C124.627 204.532 122.899 204.094 121.162 204.211C121.525 203.894 121.865 203.551 122.18 203.186C122.995 202.994 123.844 202.999 124.657 203.201C125.47 203.403 126.223 203.796 126.853 204.347C126.968 204.444 127.044 204.58 127.066 204.729C127.088 204.878 127.055 205.029 126.973 205.156Z" fill="#ADBEC4"/>
</svg>
